<svg id="developer-animated_svg__em5FgGkcRzi1" xmlns="http://www.w3.org/2000/svg" viewBox="0 0 1500 1500" shape-rendering="geometricPrecision" text-rendering="geometricPrecision" class="flex-1 min-w-72"><style>@keyframes em5FgGkcRzi281_c_o{0%,66.666667%{opacity:1}13.333333%{opacity:.5}43.333333%{opacity:.76}to{opacity:.528302}}@keyframes em5FgGkcRzi408_to__to{0%,to{transform:translate(770.714996px,1166.02002px)}46.666667%{transform:translate(770.714996px,1200.02px)}}@keyframes em5FgGkcRzi427_to__to{0%{transform:translate(1291.444946px,956.376251px)}46.666667%{transform:translate(1240.1px,956.376251px)}to{transform:translate(1290px,956.376251px)}}</style><g id="developer-animated_svg__em5FgGkcRzi2"><g id="developer-animated_svg__em5FgGkcRzi3"><path id="developer-animated_svg__em5FgGkcRzi4" d="M1444.16 737.49c0 28.83-3.15 57.54-9.99 85.44a315.95 315.95 0 01-8.04 27.33c-.9 2.58-1.8 5.16-2.76 7.71-.78 2.1-1.59 4.2-2.4 6.27-.24.57-.45 1.14-.69 1.71-.87 2.16-1.74 4.32-2.67 6.45-.15.33-.3.69-.45 1.05-.9 2.1-1.83 4.2-2.76 6.27-.42.93-.84 1.83-1.26 2.73-.84 1.86-1.71 3.69-2.61 5.52-.93 1.95-1.89 3.87-2.85 5.79-.36.69-.69 1.38-1.05 2.04-.84 1.65-1.71 3.3-2.55 4.95-.69 1.29-1.38 2.55-2.07 3.81-3.18 5.88-6.51 11.67-9.99 17.4-1.41 2.34-2.85 4.68-4.32 6.99-.33.57-.69 1.14-1.05 1.71-1.68 2.64-3.39 5.28-5.13 7.92-1.41 2.13-2.82 4.26-4.29 6.39-1.26 1.86-2.52 3.69-3.81 5.55-.27.39-.54.78-.84 1.17-1.32 1.92-2.7 3.84-4.05 5.76-1.68 2.37-3.39 4.68-5.1 7.02-.36.48-.69.96-1.05 1.41-1.95 2.67-3.96 5.31-5.94 7.92-1.2 1.56-2.4 3.15-3.63 4.68-2.16 2.85-4.38 5.67-6.63 8.49-2.13 2.7-4.29 5.37-6.48 8.04-.24.3-.48.57-.72.87-2.16 2.67-4.32 5.31-6.54 7.95-.63.81-1.32 1.62-1.98 2.4-2.01 2.43-4.05 4.86-6.09 7.26-5.88 6.96-11.82 13.86-17.79 20.7a2080.706 2080.706 0 01-37.23 41.67c-10.53 11.4-21.21 22.74-32.1 33.87-52.26 53.67-108.84 103.74-170.37 143.64-7.65 4.95-15.36 9.78-23.16 14.37-2.85 1.68-5.7 3.36-8.55 5.01-.48.27-.99.57-1.47.84-2.94 1.68-5.88 3.33-8.85 4.95a383.03 383.03 0 01-9.12 4.92l-4.14 2.16c-5.97 3.12-12 6.12-18.09 9-3.27 1.56-6.54 3.06-9.84 4.53-3.03 1.38-6.09 2.73-9.15 4.05-1.26.54-2.49 1.08-3.75 1.59-2.79 1.2-5.61 2.34-8.43 3.48-5.43 2.19-10.92 4.29-16.44 6.27-2.1.78-4.23 1.53-6.36 2.28-1.2.42-2.4.81-3.6 1.23-1.98.66-3.96 1.32-5.94 1.95-1.71.57-3.45 1.11-5.16 1.65-.06.03-.12.03-.18.06-3.39 1.05-6.78 2.07-10.17 3.06-5.37 1.56-10.74 3-16.14 4.38-3.57.9-7.14 1.74-10.74 2.55-3.39.78-6.78 1.5-10.2 2.22-.27.06-.54.12-.81.15a419.116 419.116 0 01-16.14 2.97c-1.83.3-3.66.6-5.52.87-1.65.27-3.33.51-4.98.72-2.01.3-4.05.57-6.06.84-21.33 2.73-42.72 3.87-64.11 3.63-1.29 0-2.55-.03-3.84-.06-19.38-.36-38.76-1.86-58.05-4.35-1.41-.18-2.82-.36-4.23-.57-2.43-.33-4.86-.66-7.29-1.02l-5.67-.9c-8.01-1.26-15.96-2.7-23.91-4.32-1.77-.33-3.51-.69-5.25-1.08-5.34-1.11-10.71-2.31-16.02-3.57-3.57-.84-7.11-1.71-10.65-2.61-1.77-.45-3.54-.9-5.31-1.38-1.77-.45-3.54-.93-5.31-1.41-7.05-1.89-14.07-3.93-21.06-6.06a690.79 690.79 0 01-24.24-7.83c-2.91-.99-5.85-2.01-8.76-3.03-9.03-3.21-18.06-6.6-26.97-10.11-1.59-.63-3.21-1.29-4.89-1.98-1.29-.54-2.58-1.11-3.93-1.71-.87-.39-1.74-.78-2.64-1.2-5.82-2.64-12.15-5.73-18.96-9.21-1.14-.6-2.31-1.2-3.48-1.8-4.17-2.19-8.52-4.5-12.99-6.96-9.39-5.16-19.44-10.86-30-17.07-120.03-70.62-303.78-203.16-346.92-253.41a400.43 400.43 0 01-6.45-7.74c-1.65-2.04-3.3-4.11-4.89-6.21a204.29 204.29 0 01-4.32-5.73c-1.26-1.68-2.49-3.39-3.69-5.13-1.14-1.59-2.28-3.21-3.39-4.83-.06-.12-.15-.24-.24-.36-1.35-2.01-2.7-4.02-4.02-6.06-1.26-1.95-2.52-3.9-3.72-5.88-.6-.93-1.17-1.89-1.74-2.85-1.35-2.22-2.67-4.44-3.96-6.66 0-.03 0-.03-.03-.06-1.38-2.46-2.76-4.92-4.11-7.41-2.34-4.35-4.59-8.73-6.69-13.17-.54-1.14-1.08-2.31-1.62-3.45-4.26-9.12-8.01-18.42-11.22-27.87-1.17-3.3-2.22-6.63-3.24-9.96-1.29-4.29-2.46-8.61-3.54-12.93-.21-.87-.42-1.71-.6-2.58-.54-2.25-1.05-4.53-1.5-6.81-.69-3.18-1.26-6.36-1.8-9.57-.12-.78-.27-1.56-.36-2.34-.27-1.65-.51-3.3-.72-4.98-.27-1.98-.51-3.99-.72-5.97-.09-.69-.15-1.35-.21-2.01-.18-1.71-.3-3.42-.45-5.1 0-.15 0-.3-.03-.42-.15-2.04-.27-4.05-.33-6.06-.03-.21-.03-.39-.03-.57-.09-2.13-.15-4.26-.18-6.39-.01-.79.01-1.59.01-2.38-.01-1.25-.01-2.49 0-3.74.05-3.13.14-6.26.32-9.39a200.343 200.343 0 011.89-18.12c.3-2.04.63-4.08 1.02-6.09.72-4.05 1.59-8.1 2.61-12.15 2.7-10.65 6.15-20.91 10.35-30.75 3.18-7.59 6.78-14.88 10.77-22.02.3-.6.66-1.23 1.02-1.83 16.17-28.47 38.16-53.73 62.94-77.13 2.64-2.52 5.31-4.98 8.04-7.41 2.85-2.61 5.73-5.16 8.64-7.74.18-.15.36-.33.54-.48 4.65-4.08 9.36-8.1 14.13-12.09 7.35-6.15 14.82-12.18 22.35-18.18.24-.21.51-.39.75-.6 6.45-5.1 12.96-10.17 19.44-15.21 10.2-7.89 20.43-15.75 30.45-23.58 2.67-2.07 5.31-4.14 7.92-6.21 2.91-2.28 5.76-4.56 8.61-6.84 26.88-21.54 50.04-44.46 71.58-67.92 4.17-4.56 8.31-9.15 12.42-13.77 1.95-2.22 3.9-4.41 5.82-6.63 27.39-31.2 52.86-62.76 81.21-92.55 6.75-7.11 13.65-14.1 20.76-20.97 6-5.73 12.09-11.37 18.42-16.89 7.23-6.36 14.67-12.57 22.47-18.57a426.373 426.373 0 0133.87-23.82c2.94-1.89 5.85-3.72 8.79-5.52 299.13-185.91 519.3-125.22 666.18 0 11.07 9.39 21.75 19.2 31.98 29.34 6.24 6.03 12.27 12.27 18.12 18.57.66.66 1.26 1.35 1.89 2.07 4.11 4.38 8.1 8.79 12 13.23 1.17 1.32 2.31 2.64 3.45 3.96 1.71 1.98 3.42 3.96 5.1 5.97 2.07 2.43 4.11 4.89 6.15 7.35 1.29 1.56 2.55 3.12 3.81 4.68 8.19 10.08 15.99 20.31 23.43 30.6 1.5 2.04 2.97 4.11 4.44 6.18 10.26 14.4 19.8 28.95 28.65 43.41 1.26 2.07 2.52 4.14 3.75 6.18 1.26 2.07 2.49 4.14 3.69 6.21 1.2 2.04 2.4 4.11 3.57 6.15 1.2 2.07 2.37 4.11 3.51 6.15 1.14 2.04 2.28 4.11 3.42 6.15 1.17 2.04 2.28 4.08 3.33 6.09 1.11 2.04 2.19 4.08 3.27 6.09s2.13 4.05 3.18 6.06c1.02 2.01 2.07 4.02 3.09 6 1.02 2.01 2.01 4.02 3 6 3.93 7.92 7.65 15.75 11.19 23.46 1.74 3.9 3.48 7.77 5.13 11.58 7.47 17.16 13.86 33.57 19.08 48.84.03.06.06.15.06.21.51 1.47.99 2.91 1.47 4.35.51 1.5.99 2.97 1.47 4.44.36 1.14.75 2.25 1.08 3.39.54 1.68 1.08 3.36 1.59 5.07.57 1.83 1.11 3.66 1.62 5.49.99 3.36 1.95 6.72 2.85 10.11.78 2.85 1.53 5.7 2.25 8.58.15.54.3 1.05.42 1.59.12.45.21.9.33 1.35.42 1.68.84 3.36 1.23 5.07 1.08 4.47 2.07 8.97 3 13.47.51 2.46 1.02 4.89 1.47 7.35.09.45.18.9.27 1.38.45 2.31.87 4.62 1.26 6.93.54 3.09 1.05 6.21 1.5 9.3.39 2.34.72 4.71 1.05 7.08.03.33.09.69.15 1.05.21 1.56.42 3.15.6 4.74.18 1.32.33 2.64.48 3.93.54 4.77 1.02 9.51 1.41 14.28l.27 3.24.36 5.43c.12 2.01.24 4.02.33 6.06.09 1.56.15 3.09.21 4.65.09 2.28.15 4.59.18 6.87.06 2.64.09 5.31.09 7.98z" fill="#E81E62" stroke="none" stroke-width="1"></path></g></g><g id="developer-animated_svg__em5FgGkcRzi5"><path id="developer-animated_svg__em5FgGkcRzi6" d="M96.42 786.78c-.6-.39-.45-.66 0 0z" opacity="0.2" fill="#263238" stroke="none" stroke-width="1"></path><g id="developer-animated_svg__em5FgGkcRzi7"><path id="developer-animated_svg__em5FgGkcRzi8" d="M377.01 760.32c-3.06 20.4-18.12 36.99-37.71 43.41l-7.44 2.43c-26.76 37.89-73.68 54.06-113.67 30.57l-11.7-6.87-32.76-38.94c-.12.03-.27.06-.39.09-10.38 2.16-22.11.57-29.79-6.75-1.23 6.42-9.6 10.2-15.21 6.9-5.61-3.3-6.33-12.48-1.32-16.65-6.6 5.82-16.8 3.15-23.16-3.21-.27-17.37 1.56-34.74 5.85-51.87 2.7-10.65 6.15-20.91 10.35-30.75 3.18-7.59 6.78-14.88 10.77-22.02.3-.6.66-1.23 1.02-1.83 5.91-10.44 12.6-20.43 19.95-30.06l3.78-3.42c2.85-2.61 5.73-5.16 8.64-7.74.18-.15.36-.33.54-.48 4.65-4.08 9.36-8.1 14.13-12.09 7.35-6.15 14.82-12.18 22.35-18.18.24-.21.51-.39.75-.6 6.45-5.1 12.96-10.17 19.44-15.21 3.27-2.52 6.51-5.04 9.78-7.56 1.98.24 3.9.69 5.76 1.35 8.01 2.79 9.39 10.14 14.94 15.18 7.38 6.75 14.46-4.59 25.83-4.23 34.95 1.08 21.39 36.93 38.46 32.43 73.71-19.44 61.32 74.85 29.28 95.55 18.9 15.66 35.19 26.01 31.53 50.55z" opacity="0.2" fill="#000" stroke="none" stroke-width="1"></path><g id="developer-animated_svg__em5FgGkcRzi9" stroke-width="3"><path id="developer-animated_svg__em5FgGkcRzi10" d="M342.83 727.16c0 67.81-55.66 122.78-124.32 122.78S94.2 794.97 94.2 727.16c0-67.8 55.65-122.77 124.31-122.77s124.32 54.97 124.32 122.77z" fill="#FFF" stroke="#263238"></path><path id="developer-animated_svg__em5FgGkcRzi11" d="M331.86 722.2c0 61.82-50.75 111.94-113.35 111.94-62.6 0-113.35-50.12-113.35-111.94 0-61.83 50.75-111.95 113.35-111.95 62.6 0 113.35 50.12 113.35 111.95z" fill="#263238" stroke="#FFF"></path></g><g id="developer-animated_svg__em5FgGkcRzi12"><g id="developer-animated_svg__em5FgGkcRzi13"><g id="developer-animated_svg__em5FgGkcRzi14"><g id="developer-animated_svg__em5FgGkcRzi15"><g id="developer-animated_svg__em5FgGkcRzi16"><g id="developer-animated_svg__em5FgGkcRzi17"><path id="developer-animated_svg__em5FgGkcRzi18" d="M96.71 766.33c-7.14 4.43-9.18 19.35-3.55 25.82 5.63 6.42 16.37 1.46 18.57-8.61 1.04 2.82 4.35 3.28 6.06.84 1.2-1.74 1.25-4.45.42-6.31-.54-.45-.34-.78 0 0 3.65 2.9 9.94-.26 10.82-6.46-2.67 16.49 12.32 30.89 23.37 22.5-3.26 7.01 1.01 16.23 6.73 18 5.68 1.77 11.82-1.6 17.28-5.33 5.47-3.74 11.05-8.01 17.02-8.27 5.21-.25 10.03 2.68 14.98 4.43 15.78 5.5 34.25-1.78 46.32-18.33 7.98 13.65 27.63 8.63 32.9-8.37 1.11 7.96 6.56 14.01 12.63 14.09 6.07.08 12.2-5.82 14.28-13.72v.1c.13 7.53 6.85 11.22 11.65 6.37 6.13-6.17 9.94-17.52 6.92-26.61 8.18-.33 16.09-9.81 17.32-20.79 1.27-10.99-4.28-22.01-12.17-24.17 13.54-5.62 24.14-24.05 24.65-42.88.48-18.78-9.17-36.26-22.46-40.65-5.07-1.67-10.99-1.35-15.26 3.19-1.58-10.71-6.44-20.27-13.6-25.08-11.41-7.71-27.28-2.43-35.77 11.92 4.14-7.41 4.42-18.13.65-25.16-3.77-6.99-11.26-9.8-17.62-6.49-1.37-11.49-10.23-19.66-18.91-17.43-8.65 2.23-15.66 14.51-14.92 26.13-.81-9.36-11.85-11.67-15.84-3.82.35.71-.16.29 0 0-5.5-11.58-16.73-17.53-27.14-14.14-11.08 3.63-20.37 17.54-21.8 32.7-7.63-6.97-18.78-6.67-26.98.75-8.2 7.38-12.92 21.42-11.49 33.98-8.62-8.5-23.11-3.86-29.02 9.28-5.91 13.15-1.84 31.76 8.14 37.26-6.88 1.05-12.93 10.17-12.94 19.41.02 9.28 6.09 17.17 12.99 16.92-6.96.6-13.51 8.82-14.53 18.16-1.02 9.37 3.63 18.71 10.3 20.77z" fill="#92E3A9" stroke="none" stroke-width="1"></path></g></g><g id="developer-animated_svg__em5FgGkcRzi19" opacity="0.2"><g id="developer-animated_svg__em5FgGkcRzi20"><path id="developer-animated_svg__em5FgGkcRzi21" d="M210.99 723.3c-3.47-2.91-7.9-4.32-12.14-2.99-4.24 1.34-8.13 5.72-9.09 11.15-.97 5.43 1.54 11.42 5.7 12.45 5.06 1.26 10.25-4.4 15.41-3.79 1.85.22 3.53 1.24 5.32 1.74 7.4 2.08 14.89-4.57 21.18-10.82 2.21-2.2 4.47-4.47 5.98-7.48 1.51-3.01 2.11-6.96.8-9.87-1.82-4.04-6.32-4.37-10.08-3.6-7.55 1.56-14.89 5.88-20.9 12.3l.66-4.55-2.84 5.46z" fill="#FFF" stroke="none" stroke-width="1"></path></g><g id="developer-animated_svg__em5FgGkcRzi22"><path id="developer-animated_svg__em5FgGkcRzi23" d="M319.35 708.52c-1.98-1.67-4.04-3.39-6.42-3.96-2.39-.57-5.22.25-6.79 2.83-2.14 3.52-.92 8.75 1.68 11.27 2.59 2.53 6.08 3.07 9.41 3.52 3.42.47 7.74.36 9.51-3.61 1.28-2.89.36-6.55-1.45-8.64-1.8-2.09-4.28-2.99-6.67-3.83l.73 2.42z" fill="#FFF" stroke="none" stroke-width="1"></path></g><g id="developer-animated_svg__em5FgGkcRzi24"><path id="developer-animated_svg__em5FgGkcRzi25" d="M149.72 647.23c-6.96 4.09-12.43 12.55-14.21 21.95-.53 2.83-.53 6.36 1.37 7.73 1.35.98 3.1.43 4.66-.14 6.65-2.4 13.29-4.8 19.93-7.21-3.19 1.75-6.46 3.56-9.04 6.59-2.58 3.04-4.36 7.61-3.6 11.75.88 4.86 5.05 7.63 9.03 7.31 3.98-.31 7.73-3.06 11.02-6.22 3.51-3.36 6.96-7.94 7.12-13.36.17-5.41-5.09-10.11-8.41-6.44 7.6-3.07 14.88-7.7 21.49-13.64 2.39-2.15 4.75-4.55 6.29-7.72 1.54-3.16 2.12-7.26.81-10.34-6.48-15.27-15.46 8.26-19.66 10.57-7.97 4.37-16.67-6.79-26.8-.83z" fill="#FFF" stroke="none" stroke-width="1"></path><path id="developer-animated_svg__em5FgGkcRzi26" d="M117.7 716.07c-.75 3.11-.34 6.77 1.58 8.65 1.92 1.87 5.4.99 6.36-2.05-4.45 2.04-9.21 4.35-12.06 9.27-2.84 4.91-2.31 13.17 2.06 14.74 2.73.98 5.69-.93 8.26-2.85 7.27-5.44 14.23-11.62 20.78-18.45-2.07 5.91 2.54 12.18 7.46 12.42 4.92.24 9.58-3.44 13.87-6.97 5.25-4.34 11.31-10.83 10.08-18.28-1.06-6.49-7.59-8.99-12.68-6.76-5.1 2.24-9 7.67-12.63 12.88 2.87-5.33-.94-12.75-5.78-13.29-4.72-.53-9.5 3.43-12.53 8.05 5.58-4.19 7-14.32-.36-15.03-4.78-.46-13.15 12.49-14.41 17.67z" fill="#FFF" stroke="none" stroke-width="1"></path><path id="developer-animated_svg__em5FgGkcRzi27" d="M269.3 684.26c-4.13-1.73-9.4 2.04-10.63 7.59-1.22 5.55 1.9 11.61 6.27 12.2-3.23.55-6.36 2.79-8.5 6.09-1.18 1.84-2.09 4.15-1.88 6.41.33 3.38 3.13 5.44 5.82 5.39 2.69-.04 5.28-1.65 7.76-3.22-2.67.48-5.49 1.04-7.64 3.26-2.15 2.22-3.14 6.69-1.29 8.98 1.55 1.91 4.16 1.41 6.32.51 4.86-2.02 9.41-5.52 13.15-10.11 2.68 3.71 6.7 6.27 10.76 5.17 4.07-1.08 7.6-6.79 6.43-11.69-.84-3.49-3.71-5.55-6.61-5.82-2.89-.27-5.83.93-8.63 2.24 2.89-2.75 5.97-5.81 7.09-10.13 1.12-4.31-1.03-9.88-4.53-9.33-3.92.63-6.05 7.56-9.18 10.19-3.74-4.33 3.58-14.26-4.71-17.73z" fill="#FFF" stroke="none" stroke-width="1"></path><g id="developer-animated_svg__em5FgGkcRzi28"><path id="developer-animated_svg__em5FgGkcRzi29" d="M199.09 667.8c-4.52 4.12-6.21 11.8-6.02 18.64.2 7.54 2.75 15.46 8.14 18.16 7.09 3.55 16.17-4.59 17.67-14.49 1.49-9.91-3.38-19.59-10.23-23.76-3.36-1.78-6.54-1.29-9.56 1.45z" fill="#FFF" stroke="none" stroke-width="1"></path></g><g id="developer-animated_svg__em5FgGkcRzi30"><path id="developer-animated_svg__em5FgGkcRzi31" d="M249.24 656.58c.6.64 1.21 1.28 1.81 1.92-2.95-4.72-9.35-4.97-13.03-.52-3.68 4.45-3.86 12.66-.35 16.7 3.5 4.05 9.93 3.06 13.08-2 5.11 2.74 11.95 1.13 15.69-4.69 3.74-5.81 3.1-15.52-1.8-18.8-4.89-3.28-12.52 2.56-12.13 9.76-.7-.97-1.4-1.95-2.09-2.92l-1.18.55z" fill="#FFF" stroke="none" stroke-width="1"></path></g><g id="developer-animated_svg__em5FgGkcRzi32"><path id="developer-animated_svg__em5FgGkcRzi33" d="M304.22 664.56c-3.62 4.66-7.38 9.63-8.79 15.82-1.41 6.2.59 13.85 5.37 15.11 4.75 1.26 9.38-4.05 12.21-9.46 2.55-4.88 4.53-10.89 3.22-16.19-1.32-5.3-7.35-8.12-10.47-3.78l-1.54-1.5z" fill="#FFF" stroke="none" stroke-width="1"></path></g><path id="developer-animated_svg__em5FgGkcRzi34" d="M225.37 632.5c-1.71-5.01-7.39-6.46-11.18-3.26-3.8 3.2-5.3 9.97-3.76 15.09 1.53 5.12 5.67 8.4 10.04 8.74 5.41.43 11.93-5.55 10.83-12.26 2.27 3.79 6.44 5.09 10.3 4.37 3.86-.72 7.48-3.17 10.87-5.83 4.62-3.62 9.57-9.09 9.22-15.73-.29-5.3-4.25-9.14-8.41-9.38-4.16-.24-8.31 2.48-11.56 6.15-2.55 2.87-4.69 6.36-7.44 8.91-2.75 2.56-6.45 4.06-9.31 2.25l.4.95z" fill="#FFF" stroke="none" stroke-width="1"></path></g></g></g></g></g></g></g></g><g id="developer-animated_svg__em5FgGkcRzi35"><g id="developer-animated_svg__em5FgGkcRzi36"><g id="developer-animated_svg__em5FgGkcRzi37" stroke="#263238" stroke-width="3"><path id="developer-animated_svg__em5FgGkcRzi38" d="M1129.05 1109.73h-692V818.28h692v291.45z" fill="#F1B5C9" stroke-linecap="round" stroke-linejoin="round"></path><g id="developer-animated_svg__em5FgGkcRzi41" fill="#FFF"><path id="developer-animated_svg__em5FgGkcRzi42" d="M516.62 871.96h-65.11v-36.04h65.11v36.04z"></path><path id="developer-animated_svg__em5FgGkcRzi43" d="M1113.04 1047.65h-102.55v-36.04h102.55v36.04z"></path><path id="developer-animated_svg__em5FgGkcRzi44" d="M1113.04 916.97h-63.3v-36.04h63.3v36.04z"></path><path id="developer-animated_svg__em5FgGkcRzi45" d="M516.62 1003.21h-65.11v-36.04h65.11v36.04z"></path><path id="developer-animated_svg__em5FgGkcRzi46" d="M504.21 959.81h-52.7v-36.05h52.7v36.05z"></path><g id="developer-animated_svg__em5FgGkcRzi47"><path id="developer-animated_svg__em5FgGkcRzi48" d="M487.55 915.88h-36.04v-36.04h36.04v36.04z"></path><path id="developer-animated_svg__em5FgGkcRzi49" d="M533.55 915.88h-36.04v-36.04h36.04v36.04z"></path><path id="developer-animated_svg__em5FgGkcRzi50" d="M579.55 915.88h-36.04v-36.04h36.04v36.04z"></path><path id="developer-animated_svg__em5FgGkcRzi51" d="M625.55 915.88h-36.04v-36.04h36.04v36.04z"></path><path id="developer-animated_svg__em5FgGkcRzi52" d="M671.55 915.88h-36.04v-36.04h36.04v36.04z"></path><path id="developer-animated_svg__em5FgGkcRzi53" d="M717.55 915.88h-36.04v-36.04h36.04v36.04z"></path><path id="developer-animated_svg__em5FgGkcRzi54" d="M763.55 915.88h-36.04v-36.04h36.04v36.04z"></path><path id="developer-animated_svg__em5FgGkcRzi55" d="M809.56 915.88h-36.05v-36.04h36.05v36.04z"></path><path id="developer-animated_svg__em5FgGkcRzi56" d="M855.56 915.88h-36.05v-36.04h36.05v36.04z"></path><path id="developer-animated_svg__em5FgGkcRzi57" d="M901.56 915.88h-36.05v-36.04h36.05v36.04z"></path><path id="developer-animated_svg__em5FgGkcRzi58" d="M947.56 915.88h-36.04v-36.04h36.04v36.04z"></path><path id="developer-animated_svg__em5FgGkcRzi59" d="M993.56 915.88h-36.04v-36.04h36.04v36.04z"></path><path id="developer-animated_svg__em5FgGkcRzi60" d="M1039.56 915.88h-36.04v-36.04h36.04v36.04z"></path></g><g id="developer-animated_svg__em5FgGkcRzi61"><path id="developer-animated_svg__em5FgGkcRzi62" d="M487.55 1092.09h-36.04v-36.04h36.04v36.04z"></path><path id="developer-animated_svg__em5FgGkcRzi63" d="M533.55 1092.09h-36.04v-36.04h36.04v36.04z"></path><path id="developer-animated_svg__em5FgGkcRzi64" d="M579.55 1092.09h-36.04v-36.04h36.04v36.04z"></path><path id="developer-animated_svg__em5FgGkcRzi65" d="M633.49 1092.09h-43.98v-36.04h43.98v36.04z"></path><path id="developer-animated_svg__em5FgGkcRzi66" d="M863.49 1092.09H643.44v-36.04h220.05v36.04z"></path><path id="developer-animated_svg__em5FgGkcRzi67" d="M973.51 1092.09h-36.04v-36.04h36.04v36.04z"></path><path id="developer-animated_svg__em5FgGkcRzi68" d="M1019.51 1092.09h-36.04v-36.04h36.04v36.04z"></path><path id="developer-animated_svg__em5FgGkcRzi69" d="M1065.59 1092.09h-36.04v-36.04h36.04v36.04z"></path><path id="developer-animated_svg__em5FgGkcRzi70" d="M928.45 1092.09h-55.96v-36.04h55.96v36.04z"></path><path id="developer-animated_svg__em5FgGkcRzi71" d="M1113.04 1092.09H1077v-36.04h36.04v36.04z"></path></g><g id="developer-animated_svg__em5FgGkcRzi72"><path id="developer-animated_svg__em5FgGkcRzi73" d="M550.48 959.81h-36.04v-36.05h36.04v36.05z"></path><path id="developer-animated_svg__em5FgGkcRzi74" d="M596.48 959.81h-36.04v-36.05h36.04v36.05z"></path><path id="developer-animated_svg__em5FgGkcRzi75" d="M642.49 959.81h-36.05v-36.05h36.05v36.05z"></path><path id="developer-animated_svg__em5FgGkcRzi76" d="M688.49 959.81h-36.05v-36.05h36.05v36.05z"></path><path id="developer-animated_svg__em5FgGkcRzi77" d="M734.49 959.81h-36.04v-36.05h36.04v36.05z"></path><path id="developer-animated_svg__em5FgGkcRzi78" d="M780.49 959.81h-36.04v-36.05h36.04v36.05z"></path><path id="developer-animated_svg__em5FgGkcRzi79" d="M826.49 959.81h-36.04v-36.05h36.04v36.05z"></path><path id="developer-animated_svg__em5FgGkcRzi80" d="M872.49 959.81h-36.04v-36.05h36.04v36.05z"></path><path id="developer-animated_svg__em5FgGkcRzi81" d="M918.49 959.81h-36.04v-36.05h36.04v36.05z"></path><path id="developer-animated_svg__em5FgGkcRzi82" d="M964.49 959.81h-36.04v-36.05h36.04v36.05z"></path><path id="developer-animated_svg__em5FgGkcRzi83" d="M1010.49 959.81h-36.04v-36.05h36.04v36.05z"></path><path id="developer-animated_svg__em5FgGkcRzi84" d="M1056.49 959.81h-36.04v-36.05h36.04v36.05z"></path><path id="developer-animated_svg__em5FgGkcRzi85" d="M1113.04 923.77v79.96h-36.03V959.8h-10.57v-36.03h46.6z"></path></g><g id="developer-animated_svg__em5FgGkcRzi86"><path id="developer-animated_svg__em5FgGkcRzi87" d="M561.03 1003.73h-36.04v-36.04h36.04v36.04z"></path><path id="developer-animated_svg__em5FgGkcRzi88" d="M607.03 1003.73h-36.04v-36.04h36.04v36.04z"></path><path id="developer-animated_svg__em5FgGkcRzi89" d="M653.04 1003.73h-36.05v-36.04h36.05v36.04z"></path><path id="developer-animated_svg__em5FgGkcRzi90" d="M699.04 1003.73h-36.05v-36.04h36.05v36.04z"></path><path id="developer-animated_svg__em5FgGkcRzi91" d="M745.04 1003.73H709v-36.04h36.04v36.04z"></path><path id="developer-animated_svg__em5FgGkcRzi92" d="M791.04 1003.73H755v-36.04h36.04v36.04z"></path><path id="developer-animated_svg__em5FgGkcRzi93" d="M837.04 1003.73H801v-36.04h36.04v36.04z"></path><path id="developer-animated_svg__em5FgGkcRzi94" d="M883.04 1003.73H847v-36.04h36.04v36.04z"></path><path id="developer-animated_svg__em5FgGkcRzi95" d="M929.04 1003.73H893v-36.04h36.04v36.04z"></path><path id="developer-animated_svg__em5FgGkcRzi96" d="M975.04 1003.73H939v-36.04h36.04v36.04z"></path><path id="developer-animated_svg__em5FgGkcRzi97" d="M1021.04 1003.73H985v-36.04h36.04v36.04z"></path><path id="developer-animated_svg__em5FgGkcRzi98" d="M1067.04 1003.73H1031v-36.04h36.04v36.04z"></path></g><g id="developer-animated_svg__em5FgGkcRzi99"><path id="developer-animated_svg__em5FgGkcRzi100" d="M541.48 1047.65h-36.04v-36.04h36.04v36.04z"></path><path id="developer-animated_svg__em5FgGkcRzi101" d="M587.48 1047.65h-36.04v-36.04h36.04v36.04z"></path><path id="developer-animated_svg__em5FgGkcRzi102" d="M633.49 1047.65h-36.05v-36.04h36.05v36.04z"></path><path id="developer-animated_svg__em5FgGkcRzi103" d="M679.49 1047.65h-36.05v-36.04h36.05v36.04z"></path><path id="developer-animated_svg__em5FgGkcRzi104" d="M725.49 1047.65h-36.05v-36.04h36.05v36.04z"></path><path id="developer-animated_svg__em5FgGkcRzi105" d="M771.49 1047.65h-36.04v-36.04h36.04v36.04z"></path><path id="developer-animated_svg__em5FgGkcRzi106" d="M817.49 1047.65h-36.04v-36.04h36.04v36.04z"></path><path id="developer-animated_svg__em5FgGkcRzi107" d="M863.49 1047.65h-36.04v-36.04h36.04v36.04z"></path><path id="developer-animated_svg__em5FgGkcRzi108" d="M909.49 1047.65h-36.04v-36.04h36.04v36.04z"></path><path id="developer-animated_svg__em5FgGkcRzi109" d="M955.49 1047.65h-36.04v-36.04h36.04v36.04z"></path><path id="developer-animated_svg__em5FgGkcRzi110" d="M1001.49 1047.65h-36.04v-36.04h36.04v36.04z"></path></g><g id="developer-animated_svg__em5FgGkcRzi111"><path id="developer-animated_svg__em5FgGkcRzi112" d="M561.03 874.13h-36.04v-36.04h36.04v36.04z"></path><path id="developer-animated_svg__em5FgGkcRzi113" d="M607.03 874.13h-36.04v-36.04h36.04v36.04z"></path><path id="developer-animated_svg__em5FgGkcRzi114" d="M653.04 874.13h-36.05v-36.04h36.05v36.04z"></path><path id="developer-animated_svg__em5FgGkcRzi115" d="M699.04 874.13h-36.05v-36.04h36.05v36.04z"></path><path id="developer-animated_svg__em5FgGkcRzi116" d="M745.04 874.13H709v-36.04h36.04v36.04z"></path><path id="developer-animated_svg__em5FgGkcRzi117" d="M791.04 874.13H755v-36.04h36.04v36.04z"></path><path id="developer-animated_svg__em5FgGkcRzi118" d="M837.04 874.13H801v-36.04h36.04v36.04z"></path><path id="developer-animated_svg__em5FgGkcRzi119" d="M883.04 874.13H847v-36.04h36.04v36.04z"></path><path id="developer-animated_svg__em5FgGkcRzi120" d="M929.04 874.13H893v-36.04h36.04v36.04z"></path><path id="developer-animated_svg__em5FgGkcRzi121" d="M975.04 874.13H939v-36.04h36.04v36.04z"></path><path id="developer-animated_svg__em5FgGkcRzi122" d="M1021.04 874.13H985v-36.04h36.04v36.04z"></path><path id="developer-animated_svg__em5FgGkcRzi123" d="M1067.04 874.13H1031v-36.04h36.04v36.04z"></path><path id="developer-animated_svg__em5FgGkcRzi124" d="M1113.04 874.13H1077v-36.04h36.04v36.04z"></path></g><path id="developer-animated_svg__em5FgGkcRzi125" d="M495.17 1047.65h-43.66v-36.04h43.66v36.04z"></path></g></g><path id="developer-animated_svg__em5FgGkcRzi126" d="M437.05 820.15l14.46-4.82h668.14l9.53 4.76-692.13.06z" fill="#263238" stroke="none" stroke-width="1"></path></g></g><g id="developer-animated_svg__em5FgGkcRzi127"><g id="developer-animated_svg__em5FgGkcRzi128"><path id="developer-animated_svg__em5FgGkcRzi129" d="M930.99 1320l-14.07-84.75c-3.09-12.63-9.72-24.12-19.05-33.18-27.99-27-64.98-54.72-66.57-90.12-2.43-54.09-10.86-52.47-9.96-65.82.03-.48 4.2-6.45 9.63-19.8 1.74-4.32 2.91-10.74 4.08-16.02 1.2-5.55 6.48-9.33 12.12-8.55 3.78.51 7.5 2.22 10.17 4.77 5.13 4.98 7.41 12.33 7.62 19.5.21 7.14-1.38 14.22-3 21.18 5.04 11.28 7.41 24.99 9.03 37.23 3.21-9.9 5.64-19.89 8.85-29.76.66-.36.42-1.14 1.05-1.5-4.53-9.72-.69-9.18-9.66-30.57-15.09-36-31.92-70.71-43.95-115.95-.96-3.51-.9-9.27.27-12.72 4.35-12.93 17.67-9.96 23.49-2.43 1.56 1.98 2.7 4.2 3.6 6.54 6.15 16.11 19.26 40.95 28.71 55.35l32.67 49.8c7.58-6.22 11.95-10.72 13.11-13.5l.03-.03c1.14-2.8 1.99-15.47 2.55-38.01-1.72 4.22-4.49 6.21-8.31 5.97-4.14-.3-12.54 2.1-18.51-4.62-4.89-5.49-4.89-13.74-.54-19.62l14.79-19.98c6.62-5.8 14.36-6.73 23.22-2.79 8.84 3.96 17.55 10.06 26.13 18.3 8.2-.42 15.78 1.04 22.74 4.38 6.98 3.36 14.13 9.86 21.45 19.5 8.14.5 14.04 2.08 17.7 4.74 1.38.99 20.01 30 13.29 52.59-3.99 13.47-6.45 33.03-8.25 38.28l-9.15 132.27 18.45 87.06-39.45 21.99a282.08 282.08 0 01-45.39 20.3l-28.89 9.97z" opacity="0.2" fill="#000" stroke="none" stroke-width="1"></path><g id="developer-animated_svg__em5FgGkcRzi130"><g id="developer-animated_svg__em5FgGkcRzi131"><g id="developer-animated_svg__em5FgGkcRzi132"><g id="developer-animated_svg__em5FgGkcRzi133"><g id="developer-animated_svg__em5FgGkcRzi134" clip-path="url(#developer-animated_svg__em5FgGkcRzi180)"><g id="developer-animated_svg__em5FgGkcRzi135"><g id="developer-animated_svg__em5FgGkcRzi136"><g id="developer-animated_svg__em5FgGkcRzi137" stroke="none" stroke-width="1"><path id="developer-animated_svg__em5FgGkcRzi138" d="M1027.64 985.24c1.59-3.9 3.48-7.91 6.89-10.4 3.4-2.48 8.74-2.79 11.48.41-2.24-6.88-4.62-13.71-7.13-20.5-1.92-5.16-4.08-10.54-8.34-14.03-4.27-3.48-11.3-4.22-14.95-.1 2.6 15.65 2.89 31.69.84 47.42-1.11 8.52-2.54 18.31 3.19 24.7 1.58 1.29 4.33-1.02 3.33-2.8-.48-.84-2.18-.89-2.91-.82 1.84-8.14 4.44-16.15 7.6-23.88z" fill="#92E3A9"></path><path id="developer-animated_svg__em5FgGkcRzi139" d="M1027.64 985.24c1.59-3.9 3.48-7.91 6.89-10.4 3.4-2.48 8.74-2.79 11.48.41-2.24-6.88-4.62-13.71-7.13-20.5-1.92-5.16-4.08-10.54-8.34-14.03-4.27-3.48-11.3-4.22-14.95-.1 2.6 15.65 2.89 31.69.84 47.42-1.11 8.52-2.54 18.31 3.19 24.7 1.58 1.29 4.33-1.02 3.33-2.8-.48-.84-2.18-.89-2.91-.82 1.84-8.14 4.44-16.15 7.6-23.88z" fill="#92E3A9"></path><path id="developer-animated_svg__em5FgGkcRzi140" d="M1027.64 985.24c1.59-3.9 3.48-7.91 6.89-10.4 3.4-2.48 8.74-2.79 11.48.41-2.24-6.88-4.62-13.71-7.13-20.5-1.92-5.16-4.08-10.54-8.34-14.03-4.27-3.48-11.3-4.22-14.95-.1 2.6 15.65 2.89 31.69.84 47.42-1.11 8.52-2.54 18.31 3.19 24.7 1.58 1.29 4.33-1.02 3.33-2.8-.48-.84-2.18-.89-2.91-.82 1.84-8.14 4.44-16.15 7.6-23.88z" opacity="0.502" fill="#FFF"></path></g><g id="developer-animated_svg__em5FgGkcRzi141"><path id="developer-animated_svg__em5FgGkcRzi142" d="M979.78 971.01c.22 5.77.19 11.61 1.61 17.21 1.42 5.6 4.54 11.05 9.58 13.85-2.97-11.18-1.36-23.01.27-34.46.98-6.96 1.97-13.92 2.96-20.87.34-2.42.72-4.94 2.12-6.95 1.39-2.01 4.12-3.32 6.34-2.3-2.96 1.76-6.81-.59-8.6-3.54s-2.5-6.5-4.61-9.22c-4.01-5.16-12.59-6.3-18.52-4.93 1.8 17.14 8.16 33.5 8.85 51.21z" fill="#92E3A9" stroke="none" stroke-width="1"></path><g id="developer-animated_svg__em5FgGkcRzi143"><path id="developer-animated_svg__em5FgGkcRzi144" d="M979.78 971.01c.22 5.77.19 11.61 1.61 17.21 1.42 5.6 4.54 11.05 9.58 13.85-2.97-11.18-1.36-23.01.27-34.46.98-6.96 1.97-13.92 2.96-20.87.34-2.42.72-4.94 2.12-6.95 1.39-2.01 4.12-3.32 6.34-2.3-2.96 1.76-6.81-.59-8.6-3.54s-2.5-6.5-4.61-9.22c-4.01-5.16-12.59-6.3-18.52-4.93 1.8 17.14 8.16 33.5 8.85 51.21z" fill="#92E3A9" stroke="none" stroke-width="1"></path></g><g id="developer-animated_svg__em5FgGkcRzi145" opacity="0.502"><path id="developer-animated_svg__em5FgGkcRzi146" d="M979.78 971.01c.22 5.77.19 11.61 1.61 17.21 1.42 5.6 4.54 11.05 9.58 13.85-2.97-11.18-1.36-23.01.27-34.46.98-6.96 1.97-13.92 2.96-20.87.34-2.42.72-4.94 2.12-6.95 1.39-2.01 4.12-3.32 6.34-2.3-2.96 1.76-6.81-.59-8.6-3.54s-2.5-6.5-4.61-9.22c-4.01-5.16-12.59-6.3-18.52-4.93 1.8 17.14 8.16 33.5 8.85 51.21z" fill="#FFF" stroke="none" stroke-width="1"></path></g></g><g id="developer-animated_svg__em5FgGkcRzi147" stroke="none" stroke-width="1"><g id="developer-animated_svg__em5FgGkcRzi148" fill="#92E3A9"><path id="developer-animated_svg__em5FgGkcRzi149" d="M930.8 924.76c-1.94-1.42-2.58-3.98-3.17-6.31-.58-2.33-1.41-4.88-3.51-6.05-9.21 5.84-4.18 22.97-13.49 28.65-1.81 1.1-4.11 1.72-5.12 3.58-.9 1.69-.33 3.89.99 5.28 1.31 1.39 3.21 2.09 5.1 2.42 7.4 1.33 15.21-2.45 19.64-8.54 3.64-5.02 6.17-13.14 4.37-19.1-1.41.79-3.43 1.08-4.81.07z"></path><path id="developer-animated_svg__em5FgGkcRzi150" d="M835.03 1036.91c-.17.65-.29 1.45.22 1.87.79.65 1.84-.36 2.43-1.19 3.86-5.5 11.52-7.99 17.87-5.81 2.43-.05 3.25-3.74 1.66-5.57-1.59-1.84-4.29-2.16-6.71-2.17-2.43 0-5.03.13-7.09-1.16-2.53-1.59-3.52-4.8-2.88-7.56-1.63 7.22-3.64 14.41-5.5 21.59z"></path></g><g id="developer-animated_svg__em5FgGkcRzi151" opacity="0.502" fill="#FFF"><path id="developer-animated_svg__em5FgGkcRzi152" d="M930.8 924.76c-1.94-1.42-2.58-3.98-3.17-6.31-.58-2.33-1.41-4.88-3.51-6.05-9.21 5.84-4.18 22.97-13.49 28.65-1.81 1.1-4.11 1.72-5.12 3.58-.9 1.69-.33 3.89.99 5.28 1.31 1.39 3.21 2.09 5.1 2.42 7.4 1.33 15.21-2.45 19.64-8.54 3.64-5.02 6.17-13.14 4.37-19.1-1.41.79-3.43 1.08-4.81.07z"></path><path id="developer-animated_svg__em5FgGkcRzi153" d="M835.03 1036.91c-.17.65-.29 1.45.22 1.87.79.65 1.84-.36 2.43-1.19 3.86-5.5 11.52-7.99 17.87-5.81 2.43-.05 3.25-3.74 1.66-5.57-1.59-1.84-4.29-2.16-6.71-2.17-2.43 0-5.03.13-7.09-1.16-2.53-1.59-3.52-4.8-2.88-7.56-1.63 7.22-3.64 14.41-5.5 21.59z"></path></g></g><g id="developer-animated_svg__em5FgGkcRzi154" stroke="none" stroke-width="1"><path id="developer-animated_svg__em5FgGkcRzi155" d="M957.17 922.47c-5.25-.7-10.8-.83-15.37-3.5-5.72-3.36-9.64-10.52-16.27-10.81-5.89-.26-10.28 5.14-13.62 9.99-.39-7.32 5-14.16 11.8-16.89 6.81-2.72 14.65-1.86 21.46.85 6.81 2.71 12.8 7.13 18.62 11.59 2.33 1.79 4.71 3.65 6.29 6.14 7.4 11.65-8.28 3.26-12.91 2.63z" fill="#92E3A9"></path><path id="developer-animated_svg__em5FgGkcRzi156" d="M957.17 922.47c-5.25-.7-10.8-.83-15.37-3.5-5.72-3.36-9.64-10.52-16.27-10.81-5.89-.26-10.28 5.14-13.62 9.99-.39-7.32 5-14.16 11.8-16.89 6.81-2.72 14.65-1.86 21.46.85 6.81 2.71 12.8 7.13 18.62 11.59 2.33 1.79 4.71 3.65 6.29 6.14 7.4 11.65-8.28 3.26-12.91 2.63z" opacity="0.502" fill="#FFF"></path></g></g><g id="developer-animated_svg__em5FgGkcRzi157" stroke="none" stroke-width="1"><path id="developer-animated_svg__em5FgGkcRzi158" d="M863.33 1092.86c.36-.66.67-1.34.98-2.02-.63.48-1.04 1.15-.98 2.02z" fill="#92E3A9"></path><path id="developer-animated_svg__em5FgGkcRzi159" d="M872.24 1046.38c-.59-7.39.46-14.83.15-22.24-.31-7.41-2.24-15.22-7.64-20.3-7.74-7.3-28.94-3.57-21.83 10.28 1.97 3.84 7.05 5.83 11 4.1 3.96-1.72 5.9-7.1 3.74-10.83 8.57 13 7.8 31.45-1.82 43.7 11 9.52 14.49 26.57 8.47 39.75 1.29-.98 3.53-1.11 4.94-.05 2.1 1.59 2.8 4.36 3.82 6.78 1.03 2.43 3.01 4.95 5.64 4.77 3.6-8.83 2.41-18.88.06-28.13-2.34-9.25-5.77-18.32-6.53-27.83z" fill="#92E3A9"></path><path id="developer-animated_svg__em5FgGkcRzi160" d="M949.86 907.26c-4.13-3.16-9.03-5.31-14.19-5.98l14.19 5.98z" fill="#92E3A9"></path><path id="developer-animated_svg__em5FgGkcRzi161" d="M985.13 1001.13c-1.14-5.1-3.49-9.85-4.9-14.88-3.27-11.73-1.21-24.26-2.71-36.35-1.94-15.63-10.1-30.4-22.29-40.37l-5.37-2.27c5.14 3.95 9.08 9.47 10.81 15.72 4.15 14.33 5.46 29.29 7.3 44.09 2.84 22.83 7.01 45.49 12.47 67.84 3.58-10.95 7.19-22.54 4.69-33.78z" fill="#92E3A9"></path><path id="developer-animated_svg__em5FgGkcRzi162" d="M928.01 947.78c3.71-2.94 5.7-7.63 6.34-12.32.56-4.2.16-8.45-.34-12.66-.36 1.8-2.71 3.32-4.72 2.84-2.55-.61-4.23-2.97-5.68-5.16-.36 1.26-.73 2.52-1.09 3.77-.15-.68-.3-1.36-.44-2.04l-1.43 1.81c2.13 6.03 4.18 13.01.89 18.49-1.59 2.65-4.21 4.49-6.75 6.25 3.88 2.71 9.51 1.96 13.22-.98z" fill="#92E3A9"></path><path id="developer-animated_svg__em5FgGkcRzi163" d="M933.83 921.3l.18 1.5c.09-.49.07-1-.18-1.5z" fill="#92E3A9"></path><path id="developer-animated_svg__em5FgGkcRzi164" d="M918.16 982.01c-10.52-20.66-21.05-41.34-32.61-61.43-6.76-11.75-13.93-23.37-22.94-33.5-4-4.48-15.48-14.87-21.81-8.03-4.21 4.57 1.34 12.86-3.86 17.8 1.19.07 7.06-.57 7.68.2 13.17 16.27 20.43 37.24 20.14 58.18 4.23-3.32 10.03 1.29 13.33 5.54a979.423 979.423 0 0156.91 81.3c-3.41-12.39-3.49-25.54-7.17-37.85-2.32-7.75-6-15-9.67-22.21z" fill="#92E3A9"></path><path id="developer-animated_svg__em5FgGkcRzi165" d="M1040.36 1032.38c5.03-13.45 8.95-27.24 9.4-41.52.41-12.97-2.56-26.46-9.42-37.57-1.73-2.81-8.94-14.31-12.89-13.38-7.04 1.67 2.21 13.91 3.82 16.97 6.09 11.55 12.33 23.76 11.94 36.81-.3 10.05-4.52 19.49-7.9 28.96-2.36 6.61-4.28 13.66-4.23 20.58-.52.77-.99 1.57-1.56 2.31-4.67 6.13-11.24 11.19-18.85 12.43l8.7-26.85c1.04-3.2 1.41-7.57-.45-9.79.6-1.23.97-2.52.92-3.91-.1-2.47-1.51-4.65-2.55-6.89-4.01-8.65-2.65-18.69-1.67-28.18 1.2-11.69 1.66-23.74-1.77-34.99-3.44-11.24-11.37-21.68-22.52-25.41.95 1.03 1.9 2.06 2.86 3.09l-3.78-2.75c2.34 4.88 4.69 9.75 7.03 14.63-.86 1.23-1.73 2.46-2.59 3.7 3.87-2.03 8.83.91 10.6 4.9 1.77 3.99 1.29 8.57.88 12.92-2.28 24.26-1.05 48.84 3.54 72.77-.44 5.59-1.41 11.25-4.32 16.01-3.14 5.14-9.04 9-15 8.13 1.32-5.76-.91-12.58-5.79-15.99-6.05 8.4-2.48 21.45-1.56 31.01a339.49 339.49 0 006.96 43.09c.94-12.31 3.52-24.49 7.66-36.12 3.26 11.85 6.53 23.7 9.79 35.54.1-3.31.24-6.77 1.85-9.68 1.61-2.9 5.18-5.01 8.28-3.84 2.54.96 3.92 3.66 4.96 6.17 8.48 20.37 10.62 43.32 6.04 64.9 4.02 2.24 9.35-.46 11.59-4.49 2.23-4.03 2.21-8.88 2.13-13.49l-2.1-120.07z" fill="#92E3A9"></path><path id="developer-animated_svg__em5FgGkcRzi166" d="M938.66 1045.08c-1.92 3.37 5.94 16.75 7.24 19.93 6.61 16.14 13.22 32.28 19.84 48.43-2.19-21.26-7.39-42.2-15.38-62.02-1.35-3.35-7.88-13.03-11.7-6.34z" fill="#92E3A9"></path><path id="developer-animated_svg__em5FgGkcRzi167" d="M948.93 959.52c-1.13 1.7-2.74 3.8-4.69 3.2-1.83-.55-2.14-2.96-2.11-4.87.19-11.23.37-22.46.55-33.69-9.06 6.5-7.9 15.02-8.54 24.71-.37 5.61 1.26 32.39-2.57 35.67 8.96-7.65 16.56-16.89 22.32-27.17-1.57-1.3-3.84.44-4.96 2.15z" fill="#92E3A9"></path><g id="developer-animated_svg__em5FgGkcRzi168" opacity="0.502" fill="#FFF"><path id="developer-animated_svg__em5FgGkcRzi169" d="M863.33 1092.86c.36-.66.67-1.34.98-2.02-.63.48-1.04 1.15-.98 2.02z"></path><path id="developer-animated_svg__em5FgGkcRzi170" d="M872.24 1046.38c-.59-7.39.46-14.83.15-22.24-.31-7.41-2.24-15.22-7.64-20.3-7.74-7.3-28.94-3.57-21.83 10.28 1.97 3.84 7.05 5.83 11 4.1 3.96-1.72 5.9-7.1 3.74-10.83 8.57 13 7.8 31.45-1.82 43.7 11 9.52 14.49 26.57 8.47 39.75 1.29-.98 3.53-1.11 4.94-.05 2.1 1.59 2.8 4.36 3.82 6.78 1.03 2.43 3.01 4.95 5.64 4.77 3.6-8.83 2.41-18.88.06-28.13-2.34-9.25-5.77-18.32-6.53-27.83z"></path><path id="developer-animated_svg__em5FgGkcRzi171" d="M949.86 907.26c-4.13-3.16-9.03-5.31-14.19-5.98l14.19 5.98z"></path><path id="developer-animated_svg__em5FgGkcRzi172" d="M985.13 1001.13c-1.14-5.1-3.49-9.85-4.9-14.88-3.27-11.73-1.21-24.26-2.71-36.35-1.94-15.63-10.1-30.4-22.29-40.37l-5.37-2.27c5.14 3.95 9.08 9.47 10.81 15.72 4.15 14.33 5.46 29.29 7.3 44.09 2.84 22.83 7.01 45.49 12.47 67.84 3.58-10.95 7.19-22.54 4.69-33.78z"></path><path id="developer-animated_svg__em5FgGkcRzi173" d="M928.01 947.78c3.71-2.94 5.7-7.63 6.34-12.32.56-4.2.16-8.45-.34-12.66-.36 1.8-2.71 3.32-4.72 2.84-2.55-.61-4.23-2.97-5.68-5.16-.36 1.26-.73 2.52-1.09 3.77-.15-.68-.3-1.36-.44-2.04l-1.43 1.81c2.13 6.03 4.18 13.01.89 18.49-1.59 2.65-4.21 4.49-6.75 6.25 3.88 2.71 9.51 1.96 13.22-.98z"></path><path id="developer-animated_svg__em5FgGkcRzi174" d="M933.83 921.3l.18 1.5c.09-.49.07-1-.18-1.5z"></path><path id="developer-animated_svg__em5FgGkcRzi175" d="M918.16 982.01c-10.52-20.66-21.05-41.34-32.61-61.43-6.76-11.75-13.93-23.37-22.94-33.5-4-4.48-15.48-14.87-21.81-8.03-4.21 4.57 1.34 12.86-3.86 17.8 1.19.07 7.06-.57 7.68.2 13.17 16.27 20.43 37.24 20.14 58.18 4.23-3.32 10.03 1.29 13.33 5.54a979.423 979.423 0 0156.91 81.3c-3.41-12.39-3.49-25.54-7.17-37.85-2.32-7.75-6-15-9.67-22.21z"></path><path id="developer-animated_svg__em5FgGkcRzi176" d="M1040.36 1032.38c5.03-13.45 8.95-27.24 9.4-41.52.41-12.97-2.56-26.46-9.42-37.57-1.73-2.81-8.94-14.31-12.89-13.38-7.04 1.67 2.21 13.91 3.82 16.97 6.09 11.55 12.33 23.76 11.94 36.81-.3 10.05-4.52 19.49-7.9 28.96-2.36 6.61-4.28 13.66-4.23 20.58-.52.77-.99 1.57-1.56 2.31-4.67 6.13-11.24 11.19-18.85 12.43l8.7-26.85c1.04-3.2 1.41-7.57-.45-9.79.6-1.23.97-2.52.92-3.91-.1-2.47-1.51-4.65-2.55-6.89-4.01-8.65-2.65-18.69-1.67-28.18 1.2-11.69 1.66-23.74-1.77-34.99-3.44-11.24-11.37-21.68-22.52-25.41.95 1.03 1.9 2.06 2.86 3.09l-3.78-2.75c2.34 4.88 4.69 9.75 7.03 14.63-.86 1.23-1.73 2.46-2.59 3.7 3.87-2.03 8.83.91 10.6 4.9 1.77 3.99 1.29 8.57.88 12.92-2.28 24.26-1.05 48.84 3.54 72.77-.44 5.59-1.41 11.25-4.32 16.01-3.14 5.14-9.04 9-15 8.13 1.32-5.76-.91-12.58-5.79-15.99-6.05 8.4-2.48 21.45-1.56 31.01a339.49 339.49 0 006.96 43.09c.94-12.31 3.52-24.49 7.66-36.12 3.26 11.85 6.53 23.7 9.79 35.54.1-3.31.24-6.77 1.85-9.68 1.61-2.9 5.18-5.01 8.28-3.84 2.54.96 3.92 3.66 4.96 6.17 8.48 20.37 10.62 43.32 6.04 64.9 4.02 2.24 9.35-.46 11.59-4.49 2.23-4.03 2.21-8.88 2.13-13.49l-2.1-120.07z"></path><path id="developer-animated_svg__em5FgGkcRzi177" d="M938.66 1045.08c-1.92 3.37 5.94 16.75 7.24 19.93 6.61 16.14 13.22 32.28 19.84 48.43-2.19-21.26-7.39-42.2-15.38-62.02-1.35-3.35-7.88-13.03-11.7-6.34z"></path><path id="developer-animated_svg__em5FgGkcRzi178" d="M948.93 959.52c-1.13 1.7-2.74 3.8-4.69 3.2-1.83-.55-2.14-2.96-2.11-4.87.19-11.23.37-22.46.55-33.69-9.06 6.5-7.9 15.02-8.54 24.71-.37 5.61 1.26 32.39-2.57 35.67 8.96-7.65 16.56-16.89 22.32-27.17-1.57-1.3-3.84.44-4.96 2.15z"></path></g></g><path id="developer-animated_svg__em5FgGkcRzi179" d="M1043.02 1165.44l.35-132.62c1.44-5.36 2.6-25.03 5.68-38.74 5.2-22.99-15.31-50.69-16.76-51.59-3.83-2.4-9.82-3.57-17.97-3.53-7.94-9.14-15.51-15.15-22.7-18.04-7.17-2.87-14.83-3.82-22.98-2.86-9.1-7.66-18.19-13.17-27.29-16.53-9.1-3.34-16.76-1.89-22.98 4.33l-13.42 20.9c-3.95 6.17-3.41 14.42 1.83 19.55 6.42 6.33 14.64 3.37 18.78 3.37 3.83 0 6.46-2.16 7.89-6.48.94 22.51.94 35.2 0 38.07l-.03.03c-.98 2.87-5.05 7.65-12.2 14.35l-35.89-47.51c-10.4-13.74-25.13-37.65-32.32-53.32-1.06-2.28-2.35-4.43-4.05-6.29-6.29-7.13-19.77-9.21-23.27 3.98-.93 3.53-.61 9.28.58 12.71 15.02 44.33 34.12 77.85 51.55 112.77 10.37 20.74 6.52 20.48 11.69 29.86-.61.42-.32 1.19-.97 1.57-2.53 10.08-4.3 20.19-6.83 30.27-2.44-12.1-5.72-25.61-11.5-36.53 1.16-7.06 2.28-14.22 1.58-21.35-.68-7.12-3.44-14.31-8.9-18.94-2.82-2.37-6.64-3.82-10.46-4.07-5.68-.42-10.69 3.72-11.53 9.34-.8 5.33-1.54 11.81-3.01 16.24-4.53 13.68-8.28 19.91-8.28 20.39 0 13.38 8.28 11.2 14.31 65.03 4.69 41.93 58.68 69.63 88.09 99.9l31.33 98.56c36.37-14.58 71.17-33.23 104.55-54.9l-24.87-87.92z" fill="#FFF" stroke="none" stroke-width="1"></path></g><clipPath id="developer-animated_svg__em5FgGkcRzi180"><path id="developer-animated_svg__em5FgGkcRzi181" d="M1043.02 1165.44l.35-132.62c1.44-5.36 2.6-25.03 5.68-38.74 5.2-22.99-15.31-50.69-16.76-51.59-3.83-2.4-9.82-3.57-17.97-3.53-7.94-9.14-15.51-15.15-22.7-18.04-7.17-2.87-14.83-3.82-22.98-2.86-9.1-7.66-18.19-13.17-27.29-16.53-9.1-3.34-16.76-1.89-22.98 4.33l-13.42 20.9c-3.95 6.17-3.41 14.42 1.83 19.55 6.42 6.33 14.64 3.37 18.78 3.37 3.83 0 6.46-2.16 7.89-6.48.94 22.51.94 35.2 0 38.07l-.03.03c-.98 2.87-5.05 7.65-12.2 14.35l-35.89-47.51c-10.4-13.74-25.13-37.65-32.32-53.32-1.06-2.28-2.35-4.43-4.05-6.29-6.29-7.13-19.77-9.21-23.27 3.98-.93 3.53-.61 9.28.58 12.71 15.02 44.33 34.12 77.85 51.55 112.77 10.37 20.74 6.52 20.48 11.69 29.86-.61.42-.32 1.19-.97 1.57-2.53 10.08-4.3 20.19-6.83 30.27-2.44-12.1-5.72-25.61-11.5-36.53 1.16-7.06 2.28-14.22 1.58-21.35-.68-7.12-3.44-14.31-8.9-18.94-2.82-2.37-6.64-3.82-10.46-4.07-5.68-.42-10.69 3.72-11.53 9.34-.8 5.33-1.54 11.81-3.01 16.24-4.53 13.68-8.28 19.91-8.28 20.39 0 13.38 8.28 11.2 14.31 65.03 4.69 41.93 58.68 69.63 88.09 99.9l31.33 98.56c36.37-14.58 71.17-33.23 104.55-54.9l-24.87-87.92z" fill="#000" stroke="none" stroke-width="1"></path></clipPath></g><g id="developer-animated_svg__em5FgGkcRzi182"><g id="developer-animated_svg__em5FgGkcRzi183"><path id="developer-animated_svg__em5FgGkcRzi184" d="M838.71 1035.26a38.455 38.455 0 00-8.8 9.89l8.8-9.89z" fill="#FFF" stroke="none" stroke-width="1"></path></g></g></g></g></g></g><g id="developer-animated_svg__em5FgGkcRzi185"><g id="developer-animated_svg__em5FgGkcRzi186"><g id="developer-animated_svg__em5FgGkcRzi187"><g id="developer-animated_svg__em5FgGkcRzi188"><g id="developer-animated_svg__em5FgGkcRzi189"><path id="developer-animated_svg__em5FgGkcRzi190" d="M963.34 1308.26l-31.33-98.56c-29.41-30.27-83.4-57.97-88.09-99.9-6.03-53.83-14.31-51.65-14.31-65.03 0-.48 3.75-6.71 8.28-20.39 1.47-4.43 2.21-10.91 3.01-16.24.84-5.62 5.85-9.76 11.53-9.34 3.82.25 7.64 1.7 10.46 4.07 5.46 4.63 8.22 11.82 8.9 18.94.7 7.13-.42 14.29-1.58 21.35 5.78 10.92 9.06 24.43 11.5 36.53 2.53-10.08 4.3-20.19 6.83-30.27.65-.38.36-1.15.97-1.57-5.17-9.38-1.32-9.12-11.69-29.86-17.43-34.92-36.53-68.44-51.55-112.77-1.19-3.43-1.51-9.18-.58-12.71 3.5-13.19 16.98-11.11 23.27-3.98 1.7 1.86 2.99 4.01 4.05 6.29 7.19 15.67 21.92 39.58 32.32 53.32l35.89 47.51c7.15-6.7 11.22-11.48 12.2-14.35l.03-.03c.94-2.87.94-15.56 0-38.07-1.43 4.32-4.06 6.48-7.89 6.48-4.14 0-12.36 2.96-18.78-3.37-5.24-5.13-5.78-13.38-1.83-19.55l13.42-20.9c6.22-6.22 13.88-7.67 22.98-4.33 9.1 3.36 18.19 8.87 27.29 16.53 8.15-.96 15.81-.01 22.98 2.86 7.19 2.89 14.76 8.9 22.7 18.04 8.15-.04 14.14 1.13 17.97 3.53 1.45.9 21.96 28.6 16.76 51.59-3.08 13.71-4.24 33.38-5.68 38.74l-.35 132.62 24.87 87.92" fill="none" stroke="#263238" stroke-width="3"></path></g><g id="developer-animated_svg__em5FgGkcRzi191" fill="none" stroke="#263238" stroke-width="3"><g id="developer-animated_svg__em5FgGkcRzi192"><g id="developer-animated_svg__em5FgGkcRzi193"><path id="developer-animated_svg__em5FgGkcRzi194" d="M971.9 922.77c5.29 19.56 8.05 39.81 8.18 60.07.02 3.39-.02 6.86 1.07 10.07s3.56 6.19 6.88 6.86"></path><path id="developer-animated_svg__em5FgGkcRzi195" d="M1014.33 942.48c8.91 18.79-.21 60.74.46 63.69.68 2.96 2.36 5.83 5.06 7.21"></path><g id="developer-animated_svg__em5FgGkcRzi196"><path id="developer-animated_svg__em5FgGkcRzi197" d="M936.98 920.21c-1.05 5.97-1.92 12.89-2.97 18.86-6.97-5.93-11.41-14.75-12.03-23.89"></path><path id="developer-animated_svg__em5FgGkcRzi198" d="M879.51 1080.28l-6.48 2.85"></path><path id="developer-animated_svg__em5FgGkcRzi199" d="M881.17 1085.47a37.495 37.495 0 00-.07 15.18"></path><path id="developer-animated_svg__em5FgGkcRzi200" d="M919.08 1029.41c2.39 4.31 4.78 8.62 7.18 12.93"></path><path id="developer-animated_svg__em5FgGkcRzi201" d="M932.86 982.09l7.14-10.08"></path><path id="developer-animated_svg__em5FgGkcRzi202" d="M1033.29 1029.41c-.71 2.63-1.43 5.26-2.15 7.9"></path><path id="developer-animated_svg__em5FgGkcRzi203" d="M1015.83 1007.78c2.11-6.72 4.21-13.44 6.32-20.16"></path><path id="developer-animated_svg__em5FgGkcRzi204" d="M1036.94 972.04c3.71-2.15 9.09-.48 10.92 3.39"></path><path id="developer-animated_svg__em5FgGkcRzi205" d="M993.83 937.6c4.95-1.45 10.61-.15 14.45 3.3"></path><path id="developer-animated_svg__em5FgGkcRzi206" d="M860.21 957.6c4.61-5.12 11.77-7.82 18.61-7.01"></path></g></g><path id="developer-animated_svg__em5FgGkcRzi207" d="M833.14 901.02c4.29-3.14 9.87-4.45 15.11-3.54"></path><path id="developer-animated_svg__em5FgGkcRzi208" d="M838.71 1035.26a38.455 38.455 0 00-8.8 9.89"></path></g><path id="developer-animated_svg__em5FgGkcRzi209" d="M841.59 1021.64c4.74-3.39 12.3 4.19 16.66.32 1.74-1.54 1.87-4.21 1.47-6.49-.41-2.29-1.21-4.58-.87-6.88"></path></g></g></g><path id="developer-animated_svg__em5FgGkcRzi210" d="M975.36 1000.84c5.76 11.83 6.96 25.81 3.29 38.45" fill="none" stroke="#263238" stroke-width="3"></path><path id="developer-animated_svg__em5FgGkcRzi211" d="M1010.21 1019.34c.94 5.62-.14 11.56-3.01 16.49" fill="none" stroke="#263238" stroke-width="3"></path></g></g><path id="developer-animated_svg__em5FgGkcRzi212" d="M720.15 1064.37c.27 2.07.18 4.2-.27 6.24-1.95 9.03-7.59 35.34-9.66 49.74-1.64 11.72-11.93 35.72-30.87 72-17.44 21.68-30.6 38.16-39.48 49.44-6.54 8.31-16.89 41.94-25.68 73.98-11.1-3.36-22.08-6.99-33-10.86-9.03-3.21-18.06-6.6-26.97-10.11-12.54-4.95-28.53-12.81-46.89-22.86 4.98-18.09 8.31-32.01 8.25-32.82-.1-1.26 3.46-8.84 10.68-22.74l-9.45-124.32-5.58-18.93c-2.91-9.78-4.74-19.86-5.49-29.94-1.17-15.39.12-30.9 3.87-45.99l16.29-24.18 7.62-.57 23.58-32.94c8.5-2.56 13.84-.64 16.02 5.76 2.18 6.42-1.36 15.6-10.62 27.54l-4.77 29.61 11.34 27.72 5.88 2.16c1.32-32.54 1.53-52.06.63-58.56l12.54-44.55c4.98-9.92 8.24-17.38 9.78-22.38 2.28-7.47 15.69-14.88 23.4-1.77 2.86 4.44 3.26 9.71 1.2 15.81-2.1 6.1-4.02 11.55-5.76 16.35-1.9 25.16-3.15 38.09-3.75 38.79-.6.66 1.25 19.39 5.55 56.19l4.92 2.19 1.74-52.65 10.23-49.47c-.56-15.86 4.75-22.83 15.93-20.91 5.24-.6 9.35 1.96 12.33 7.68 2.98 5.7 3.05 27.53.21 65.49l4.14 58.86 6.63 45.39 7.8-31.11c.3-29.72 9.83-45.85 28.59-48.39 5.58-1 8.94.44 10.08 4.32 1.71 5.79-4.17 17.7-3.33 29.1.63 8.01 1.77 17.04 2.34 21.69z" opacity="0.2" fill="#000" stroke="none" stroke-width="1"></path><g id="developer-animated_svg__em5FgGkcRzi213"><g id="developer-animated_svg__em5FgGkcRzi214" clip-path="url(#developer-animated_svg__em5FgGkcRzi237)"><g id="developer-animated_svg__em5FgGkcRzi215"><path id="developer-animated_svg__em5FgGkcRzi216" d="M516.91 996.71c4.85-6.04 14.81-8.36 20.44-3.05 3.23 3.05 4.32 7.68 5.14 12.04.82 4.37 1.64 8.99 4.53 12.36 2.89 3.37 8.67 4.69 11.72 1.46l1.2 19.7c7.01-12.16 10.63-26.26 10.34-40.3-.14-6.83-1.17-13.76.41-20.4 1.58-6.64 6.73-13.1 13.55-13.41 7.56-.34 13.54 7.02 14.99 14.45 1.45 7.43-.25 15.06-.71 22.61-.7 11.52 1.55 23.21 6.5 33.64 1.59-3.22 3.17-6.43 4.76-9.65l4.29 19.37 3.72-42.62c.35-4.01.74-8.15 2.61-11.72 1.87-3.56 5.62-6.46 9.63-6.06 5.41.54 8.51 6.3 10.32 11.42 13.52 38.23 7.95 80.22 2.22 120.36 3.76.67 6.92-3.1 7.85-6.81.94-3.7.61-7.69 2.01-11.24 1.41-3.55 5.75-6.48 8.98-4.44 4.73 2.97 1.43 12.19 6.4 14.74 1.54-11.87 6.27-23.31 13.58-32.8 3.32-4.32 8.32-8.6 13.6-7.23 3.94 1.02 6.51 5.04 7.09 9.07.58 4.03 6.39-12.6 5.39-8.66 2.27-23.14-2.28-25.58-.01-48.72.41-4.18 7.17-11.42 4.29-14.48-2.73-2.91-10.88-7.18-14.51-5.5-3.62 1.67-15.41 7.54-17.75 10.77-14.74 20.35-13.74 49.83-18.32 74.54-3.92-37.68-7.81-75.98-.9-113.23 3.81-20.55 10.83-41.95 4.2-61.76-3.03-9.05-11.07-18.09-20.45-16.37-7.57 1.38-12.15 9.01-15.22 16.07-10.33 23.7-14.92 49.44-19.43 74.9 5.64-25.62 11.28-51.25 16.91-76.87 1.47-6.66 2.94-13.53 1.73-20.24-1.21-6.71-5.79-13.29-12.47-14.69-6.62-1.39-13.19 2.52-18.19 7.09-17.83 16.31-24.47 41.2-30.28 64.66 2.04-6.13 4.11-12.48 3.48-18.91-.63-6.42-4.72-12.98-11.03-14.37-8.17-1.79-15.59 5.5-19.18 13.05-3.58 7.56-5.35 16.25-11.07 22.35-4.17-4.69-12-4.42-17.24-.95-5.23 3.46-8.39 9.26-10.94 15-9.39 21.05-13.42 44.47-11.61 67.44 4.14-9.22 14.6-15.17 24.64-14.02-.6-5.11-1.19-10.22-1.79-15.34" fill="#92E3A9" stroke="none" stroke-width="1"></path><g id="developer-animated_svg__em5FgGkcRzi217"><g id="developer-animated_svg__em5FgGkcRzi218"><path id="developer-animated_svg__em5FgGkcRzi219" d="M536.66 1045.52c-.25 3.79-.5 7.58-.76 11.36 1.16-3.15 5.79-4.33 8.31-2.1-.56-2.41.94-4.74 1.89-7.02.95-2.28 1.05-5.52-1.17-6.61-2.63-1.29-5.24 1.74-6.63 4.33-.12-.94-.23-1.88-.35-2.82l-1.29 2.86z" fill="#92E3A9" stroke="none" stroke-width="1"></path></g><g id="developer-animated_svg__em5FgGkcRzi220"><path id="developer-animated_svg__em5FgGkcRzi221" d="M579.7 1038.74a26.423 26.423 0 00-6.06 12.54c1.31-1.28 2.67-2.59 4.39-3.22 1.71-.62 3.9-.35 4.98 1.12.68.91.92 2.23 1.93 2.75 1.02.53 2.33-.11 2.93-1.08.61-.97.7-2.17.77-3.31.14-2.18.27-4.42-.37-6.52-.63-2.09-2.19-4.05-4.33-4.51-2.14-.46-4.67 1.11-4.69 3.3l.45-1.07z" fill="#92E3A9" stroke="none" stroke-width="1"></path></g><g id="developer-animated_svg__em5FgGkcRzi222"><path id="developer-animated_svg__em5FgGkcRzi223" d="M621.36 1049.08a33.83 33.83 0 00-6.29 15.1c2.21-.32 4.06-1.76 5.83-3.13 1.76-1.37 3.68-2.75 5.91-2.93 2.22-.17 4.73 1.44 4.66 3.67-.42-2.52-.02-5.09.25-7.63.27-2.53.39-5.18-.56-7.55-.95-2.37-3.23-4.38-5.78-4.25-2.55.14-4.74 3.12-3.55 5.38l-.47 1.34z" fill="#92E3A9" stroke="none" stroke-width="1"></path></g><g id="developer-animated_svg__em5FgGkcRzi224"><path id="developer-animated_svg__em5FgGkcRzi225" d="M506.73 1064.13a29.819 29.819 0 00-3.5 14.11c.03-2.25 2.16-4.08 4.39-4.4 2.23-.32 4.47.55 6.41 1.71.45-2.27.89-4.61.42-6.88-.48-2.26-2.12-4.44-4.4-4.81-2.29-.37-4.81 1.83-4.18 4.06-.24-.58-.48-1.16-.71-1.73l1.57-2.06z" fill="#92E3A9" stroke="none" stroke-width="1"></path></g></g><path id="developer-animated_svg__em5FgGkcRzi226" d="M516.91 996.71c4.85-6.04 14.81-8.36 20.44-3.05 3.23 3.05 4.32 7.68 5.14 12.04.82 4.37 1.64 8.99 4.53 12.36 2.89 3.37 8.67 4.69 11.72 1.46l1.2 19.7c7.01-12.16 10.63-26.26 10.34-40.3-.14-6.83-1.17-13.76.41-20.4 1.58-6.64 6.73-13.1 13.55-13.41 7.56-.34 13.54 7.02 14.99 14.45 1.45 7.43-.25 15.06-.71 22.61-.7 11.52 1.55 23.21 6.5 33.64 1.59-3.22 3.17-6.43 4.76-9.65l4.29 19.37 3.72-42.62c.35-4.01.74-8.15 2.61-11.72 1.87-3.56 5.62-6.46 9.63-6.06 5.41.54 8.51 6.3 10.32 11.42 13.52 38.23 7.95 80.22 2.22 120.36 3.76.67 6.92-3.1 7.85-6.81.94-3.7.61-7.69 2.01-11.24 1.41-3.55 5.75-6.48 8.98-4.44 4.73 2.97 1.43 12.19 6.4 14.74 1.54-11.87 6.27-23.31 13.58-32.8 3.32-4.32 8.32-8.6 13.6-7.23 3.94 1.02 6.51 5.04 7.09 9.07.58 4.03 6.39-12.6 5.39-8.66 2.27-23.14-2.28-25.58-.01-48.72.41-4.18 7.17-11.42 4.29-14.48-2.73-2.91-10.88-7.18-14.51-5.5-3.62 1.67-15.41 7.54-17.75 10.77-14.74 20.35-13.74 49.83-18.32 74.54-3.92-37.68-7.81-75.98-.9-113.23 3.81-20.55 10.83-41.95 4.2-61.76-3.03-9.05-11.07-18.09-20.45-16.37-7.57 1.38-12.15 9.01-15.22 16.07-10.33 23.7-14.92 49.44-19.43 74.9 5.64-25.62 11.28-51.25 16.91-76.87 1.47-6.66 2.94-13.53 1.73-20.24-1.21-6.71-5.79-13.29-12.47-14.69-6.62-1.39-13.19 2.52-18.19 7.09-17.83 16.31-24.47 41.2-30.28 64.66 2.04-6.13 4.11-12.48 3.48-18.91-.63-6.42-4.72-12.98-11.03-14.37-8.17-1.79-15.59 5.5-19.18 13.05-3.58 7.56-5.35 16.25-11.07 22.35-4.17-4.69-12-4.42-17.24-.95-5.23 3.46-8.39 9.26-10.94 15-9.39 21.05-13.42 44.47-11.61 67.44 4.14-9.22 14.6-15.17 24.64-14.02-.6-5.11-1.19-10.22-1.79-15.34" opacity="0.502" fill="#FFF" stroke="none" stroke-width="1"></path><g id="developer-animated_svg__em5FgGkcRzi227" opacity="0.502"><g id="developer-animated_svg__em5FgGkcRzi228"><path id="developer-animated_svg__em5FgGkcRzi229" d="M536.66 1045.52c-.25 3.79-.5 7.58-.76 11.36 1.16-3.15 5.79-4.33 8.31-2.1-.56-2.41.94-4.74 1.89-7.02.95-2.28 1.05-5.52-1.17-6.61-2.63-1.29-5.24 1.74-6.63 4.33-.12-.94-.23-1.88-.35-2.82l-1.29 2.86z" fill="#FFF" stroke="none" stroke-width="1"></path></g><g id="developer-animated_svg__em5FgGkcRzi230"><path id="developer-animated_svg__em5FgGkcRzi231" d="M579.7 1038.74a26.423 26.423 0 00-6.06 12.54c1.31-1.28 2.67-2.59 4.39-3.22 1.71-.62 3.9-.35 4.98 1.12.68.91.92 2.23 1.93 2.75 1.02.53 2.33-.11 2.93-1.08.61-.97.7-2.17.77-3.31.14-2.18.27-4.42-.37-6.52-.63-2.09-2.19-4.05-4.33-4.51-2.14-.46-4.67 1.11-4.69 3.3l.45-1.07z" fill="#FFF" stroke="none" stroke-width="1"></path></g><g id="developer-animated_svg__em5FgGkcRzi232"><path id="developer-animated_svg__em5FgGkcRzi233" d="M621.36 1049.08a33.83 33.83 0 00-6.29 15.1c2.21-.32 4.06-1.76 5.83-3.13 1.76-1.37 3.68-2.75 5.91-2.93 2.22-.17 4.73 1.44 4.66 3.67-.42-2.52-.02-5.09.25-7.63.27-2.53.39-5.18-.56-7.55-.95-2.37-3.23-4.38-5.78-4.25-2.55.14-4.74 3.12-3.55 5.38l-.47 1.34z" fill="#FFF" stroke="none" stroke-width="1"></path></g><g id="developer-animated_svg__em5FgGkcRzi234"><path id="developer-animated_svg__em5FgGkcRzi235" d="M506.73 1064.13a29.819 29.819 0 00-3.5 14.11c.03-2.25 2.16-4.08 4.39-4.4 2.23-.32 4.47.55 6.41 1.71.45-2.27.89-4.61.42-6.88-.48-2.26-2.12-4.44-4.4-4.81-2.29-.37-4.81 1.83-4.18 4.06-.24-.58-.48-1.16-.71-1.73l1.57-2.06z" fill="#FFF" stroke="none" stroke-width="1"></path></g></g><path id="developer-animated_svg__em5FgGkcRzi236" d="M711.6 1009.26c-.86-3.96-4.1-5.65-9.73-5.07-18.89 1.11-29.62 16.48-32.16 46.1l-10.15 30.43-3.17-45.78.32-59c5.71-37.64 7.29-59.42 4.75-65.33-2.53-5.92-6.43-8.78-11.72-8.57-11-2.76-16.82 3.79-17.46 19.65l-13.93 48.54-5.72 52.35-4.75-2.53c-1.5-37.03-1.93-55.85-1.28-56.47.64-.64 2.86-13.44 6.67-38.39 2.1-4.65 4.42-9.93 6.97-15.86 2.52-5.93 2.52-11.21 0-15.86-6.68-13.64-20.61-7.28-23.47 0-1.9 4.86-5.71 12.05-11.42 21.57l-15.89 43.47c.4 6.55-1.28 26-5.04 58.36l-5.72-2.6-9.21-28.51 7-29.18c10.14-11.19 14.37-20.07 12.68-26.64-1.69-6.55-6.87-8.87-15.54-6.97l-26 31.08h-7.64l-18.08 22.85a145.27 145.27 0 00-7.35 45.59c0 10.11 1.06 20.29 3.21 30.27l4.14 19.29v124.68c-8.24 13.32-12.36 20.6-12.36 21.87 0 .86-5.1 16.62-12.23 36.27 31.11 18.3 57.92 32.46 76.89 39.93 8.92 3.54 17.94 6.91 26.99 10.12 11.4-32.01 24.72-66.26 32.07-74.25 9.72-10.58 24.09-26.02 43.12-46.33 21.63-34.73 33.71-57.88 36.24-69.43 3.14-14.22 10.75-40.03 13.38-48.89.61-1.99.87-4.11.74-6.2-.22-4.68-.67-13.77-.67-21.79 0-11.43 6.77-22.86 5.52-28.77z" fill="#FFF" stroke="none" stroke-width="1"></path></g><clipPath id="developer-animated_svg__em5FgGkcRzi237"><path id="developer-animated_svg__em5FgGkcRzi238" d="M711.6 1009.26c-.86-3.96-4.1-5.65-9.73-5.07-18.89 1.11-29.62 16.48-32.16 46.1l-10.15 30.43-3.17-45.78.32-59c5.71-37.64 7.29-59.42 4.75-65.33-2.53-5.92-6.43-8.78-11.72-8.57-11-2.76-16.82 3.79-17.46 19.65l-13.93 48.54-5.72 52.35-4.75-2.53c-1.5-37.03-1.93-55.85-1.28-56.47.64-.64 2.86-13.44 6.67-38.39 2.1-4.65 4.42-9.93 6.97-15.86 2.52-5.93 2.52-11.21 0-15.86-6.68-13.64-20.61-7.28-23.47 0-1.9 4.86-5.71 12.05-11.42 21.57l-15.89 43.47c.4 6.55-1.28 26-5.04 58.36l-5.72-2.6-9.21-28.51 7-29.18c10.14-11.19 14.37-20.07 12.68-26.64-1.69-6.55-6.87-8.87-15.54-6.97l-26 31.08h-7.64l-18.08 22.85a145.27 145.27 0 00-7.35 45.59c0 10.11 1.06 20.29 3.21 30.27l4.14 19.29v124.68c-8.24 13.32-12.36 20.6-12.36 21.87 0 .86-5.1 16.62-12.23 36.27 31.11 18.3 57.92 32.46 76.89 39.93 8.92 3.54 17.94 6.91 26.99 10.12 11.4-32.01 24.72-66.26 32.07-74.25 9.72-10.58 24.09-26.02 43.12-46.33 21.63-34.73 33.71-57.88 36.24-69.43 3.14-14.22 10.75-40.03 13.38-48.89.61-1.99.87-4.11.74-6.2-.22-4.68-.67-13.77-.67-21.79 0-11.43 6.77-22.86 5.52-28.77z" fill="#000" stroke="none" stroke-width="1"></path></clipPath></g><g id="developer-animated_svg__em5FgGkcRzi239"><path id="developer-animated_svg__em5FgGkcRzi240" d="M477.32 1254.87c7.13-19.65 12.23-35.41 12.23-36.27 0-1.27 4.12-8.55 12.36-21.86v-124.69l-4.14-19.29c-2.15-9.98-3.21-20.16-3.21-30.27 0-15.44 2.47-30.82 7.35-45.59l18.08-22.85h7.64l26-31.08c8.67-1.9 13.85.42 15.54 6.97 1.69 6.57-2.54 15.45-12.68 26.64l-7 29.18 9.21 28.51 5.72 2.6c3.76-32.36 5.44-51.81 5.04-58.36l15.89-43.47c5.71-9.52 9.52-16.71 11.42-21.57 2.86-7.28 16.79-13.64 23.47 0 2.52 4.65 2.52 9.93 0 15.86-2.55 5.93-4.87 11.21-6.97 15.86-3.81 24.95-6.03 37.75-6.67 38.39-.65.62-.22 19.45 1.28 56.47l4.75 2.53 5.72-52.35 13.93-48.54c.64-15.86 6.46-22.41 17.46-19.65 5.29-.21 9.19 2.65 11.72 8.57 2.54 5.91.96 27.69-4.75 65.33l-.32 59 3.17 45.78 10.15-30.43c2.54-29.62 13.27-44.99 32.16-46.1 5.63-.58 8.87 1.11 9.73 5.07 1.25 5.91-5.52 17.34-5.52 28.77 0 8.02.45 17.11.67 21.79.13 2.09-.13 4.21-.74 6.2-2.63 8.86-10.24 34.67-13.38 48.89-2.53 11.55-14.61 34.7-36.24 69.43-19.03 20.31-33.4 35.75-43.12 46.33-7.35 7.99-20.67 42.24-32.07 74.25" fill="none" stroke="#263238" stroke-width="3"></path></g><path id="developer-animated_svg__em5FgGkcRzi241" d="M563.89 1021.57c1.66 5.91-.02 12.64-4.26 17.08" fill="#FFF" stroke="#263238" stroke-width="3"></path><path id="developer-animated_svg__em5FgGkcRzi242" d="M515.51 1063.51c4.13-6.38 8.14-15.15 7.03-22.67-2.16-14.72-8.87-31.67-5.85-46.25 1.92-9.31 3.85-18.62 5.78-27.93" fill="#FFF" stroke="#263238" stroke-width="3"></path><path id="developer-animated_svg__em5FgGkcRzi243" d="M635.13 924.37a29.29 29.29 0 0114.96.04c.05-1.39.11-2.78.17-4.18" fill="none" stroke="#263238" stroke-width="3"></path><path id="developer-animated_svg__em5FgGkcRzi244" d="M595.73 905.63c2.88 2.06 6.93 2.34 10.06.68 3.12-1.65 5.18-5.15 5.09-8.69" fill="none" stroke="#263238" stroke-width="3"></path><path id="developer-animated_svg__em5FgGkcRzi245" d="M704.16 1009.77c-8.33 1.9-14.56 10.5-13.77 19 2.45.73 4.9 1.46 7.36 2.19" fill="none" stroke="#263238" stroke-width="3"></path><path id="developer-animated_svg__em5FgGkcRzi246" d="M607.61 1013.43c.34 5.03-.28 17.07.05 22.1" fill="#FFF" stroke="#263238" stroke-width="3"></path><path id="developer-animated_svg__em5FgGkcRzi247" d="M613.14 1020.41c-.61 8.24-1.21 16.49-1.82 24.73l.15-3.14" fill="#FFF" stroke="#263238" stroke-width="3"></path><path id="developer-animated_svg__em5FgGkcRzi248" d="M658.91 1089.93c2.2 9.03 1.19 18.8-2.81 27.18" fill="#FFF" stroke="#263238" stroke-width="3"></path><path id="developer-animated_svg__em5FgGkcRzi249" d="M582.86 1046.7c-6.54 7.18-5.58 24.38-.96 33.84" fill="none" stroke="#263238" stroke-width="3"></path><path id="developer-animated_svg__em5FgGkcRzi250" d="M631.2 1058.54c.16 7.74-2.66 15.51-8.01 22" fill="none" stroke="#263238" stroke-width="3"></path><path id="developer-animated_svg__em5FgGkcRzi251" d="M535.23 1050.13c-1.09 7.21.54 14.78 4.47 20.91" fill="none" stroke="#263238" stroke-width="3"></path><path id="developer-animated_svg__em5FgGkcRzi252" d="M507.4 1072.53c-.32 5.66 1.34 11.4 4.62 16.02" fill="none" stroke="#263238" stroke-width="3"></path><path id="developer-animated_svg__em5FgGkcRzi253" d="M545.54 934.22c3.4-1.64 7.78-.94 10.5 1.68 1.23-1.63 2.47-3.26 3.71-4.89" fill="none" stroke="#263238" stroke-width="3"></path><path id="developer-animated_svg__em5FgGkcRzi254" d="M576.32 956.24c4.96-3.15 12.23-1.92 15.87 2.69" fill="none" stroke="#263238" stroke-width="3"></path><path id="developer-animated_svg__em5FgGkcRzi255" d="M624.4 971.25c5.36-2.43 11.8-2.29 17.05.36" fill="none" stroke="#263238" stroke-width="3"></path><path id="developer-animated_svg__em5FgGkcRzi256" d="M517.43 996.42c3.1-5.37 9.57-8.58 15.72-7.8" fill="none" stroke="#263238" stroke-width="3"></path><path id="developer-animated_svg__em5FgGkcRzi257" d="M497.31 1025.11c.08-3.87 3.27-7.45 7.11-7.98" fill="none" stroke="#263238" stroke-width="3"></path></g></g></g><g id="developer-animated_svg__em5FgGkcRzi258"><g id="developer-animated_svg__em5FgGkcRzi259"><path id="developer-animated_svg__em5FgGkcRzi260" d="M1394.65 685.18c0 68.67-55.67 124.34-124.34 124.34-68.68 0-124.34-55.67-124.34-124.34s55.66-124.34 124.34-124.34c68.67 0 124.34 55.67 124.34 124.34z" fill="none" stroke="#263238" stroke-width="3" stroke-linecap="round" stroke-linejoin="round"></path><g id="developer-animated_svg__em5FgGkcRzi261"><g id="developer-animated_svg__em5FgGkcRzi262"><g id="developer-animated_svg__em5FgGkcRzi263"><path id="developer-animated_svg__em5FgGkcRzi264" d="M1411.08 688.43c-26.51 43.49-35.94 37.61-126.37 80.93-45.91 22-90.28-48.71-60.26-121.27.97-2.36 5.78-9.51 14.43-21.45 5.46-24 25.38-44.1 49.35-49.74 23.94-5.67 50.76 3.36 66.39 22.38 16.98-15.03 41.61-20.61 63.54-15.18 1.05 3.06 2.04 6.06 3 9 .36 1.14.75 2.25 1.08 3.39 1.14 3.51 2.22 7.02 3.21 10.56 1.98 6.72 3.81 13.47 5.52 20.28-9.99-2.79-20.04-2.85-29.52 1.77-6.63 3.24-12.18 8.58-19.08 11.22-6.9 2.61-16.44 1.14-19.08-5.76 3.33 13.86 17.87 9.72 31.84 12.46 21.63 4.25 27.11 23.11 15.95 41.41z" opacity="0.2" fill="#000" stroke="none" stroke-width="1"></path></g><g id="developer-animated_svg__em5FgGkcRzi265"><path id="developer-animated_svg__em5FgGkcRzi266" d="M1370.24 667c14.84-2.01 25.78-2.49 32.83-1.43 6.71 1 10.83 4.91 12.8 7.34.92 1.13 1.44 2.52 1.54 3.97l1.19 17.4c.14 1.98-.54 3.95-1.92 5.39-4.33 4.52-17.45 12.77-56.26 15.73-36.38 2.78-33.11-13.35 9.82-48.4z" fill="#FFF" stroke="#263238" stroke-width="3" stroke-linecap="round" stroke-linejoin="round"></path><g id="developer-animated_svg__em5FgGkcRzi267"><path id="developer-animated_svg__em5FgGkcRzi268" d="M1353.97 622.03c6.27 7.79 18.23 25.46 18.23 52.89 0 20.73-24.01 91.53-85.48 100.15-65.07 9.13-117.38-46.56-106.21-113.57 7.73-46.35 121.23-104.39 173.46-39.47z" fill="#FFF" stroke="#263238" stroke-width="3" stroke-linecap="round" stroke-linejoin="round"></path><path id="developer-animated_svg__em5FgGkcRzi269" d="M1180.06 670.24c0 49.36 42.27 89.36 94.41 89.36 52.14 0 94.41-40 94.41-89.36 0-49.35-42.27-89.36-94.41-89.36-52.14 0-94.41 40.01-94.41 89.36z" fill="#FFF" stroke="none" stroke-width="1"></path><path id="developer-animated_svg__em5FgGkcRzi270" d="M1196.77 674.92c0 40.52 34.7 73.36 77.51 73.36 42.8 0 77.5-32.84 77.5-73.36 0-40.51-34.7-73.36-77.5-73.36-42.81 0-77.51 32.85-77.51 73.36z" fill="#263238" stroke="none" stroke-width="1"></path><path id="developer-animated_svg__em5FgGkcRzi271" d="M1368.88 670.24c0-49.35-42.27-89.36-94.41-89.36-52.14 0-94.41 40.01-94.41 89.36" fill="none" stroke="#263238" stroke-width="3" stroke-linecap="round" stroke-linejoin="round"></path><path id="developer-animated_svg__em5FgGkcRzi272" d="M1343.97 730.72c15.47-15.91 24.91-37.15 24.91-60.48" fill="none" stroke="#263238" stroke-width="3" stroke-linecap="round" stroke-linejoin="round"></path><path id="developer-animated_svg__em5FgGkcRzi273" d="M1208.34 734.02c17.03 15.82 40.38 25.58 66.13 25.58 15.82 0 30.73-3.68 43.82-10.18" fill="none" stroke="#263238" stroke-width="3" stroke-linecap="round" stroke-linejoin="round"></path><path id="developer-animated_svg__em5FgGkcRzi274" d="M1194.72 718.08a86.15 86.15 0 003.91 5.4" fill="none" stroke="#263238" stroke-width="3" stroke-linecap="round" stroke-linejoin="round"></path><path id="developer-animated_svg__em5FgGkcRzi275" d="M1180.06 670.24c0 13.64 3.23 26.56 9 38.13" fill="none" stroke="#263238" stroke-width="3" stroke-linecap="round" stroke-linejoin="round"></path></g><path id="developer-animated_svg__em5FgGkcRzi276" d="M1413.02 694.7c-11.22-7.85-25.93-8.21-44.14-1.1" fill="#FFF" stroke="#263238" stroke-width="3" stroke-linecap="round" stroke-linejoin="round"></path><path id="developer-animated_svg__em5FgGkcRzi277" d="M1398.53 702.88c-6.44 1.91-17.24 4.12-34.91 5.48" fill="#FFF" stroke="#263238" stroke-width="3" stroke-linecap="round" stroke-linejoin="round"></path><path id="developer-animated_svg__em5FgGkcRzi278" d="M1407.28 699.16c-.68.6-2.08 1.32-4.21 2.17" fill="#FFF" stroke="#263238" stroke-width="3" stroke-linecap="round" stroke-linejoin="round"></path></g></g><g id="developer-animated_svg__em5FgGkcRzi279"><path d="M1422.24 596.49c-.33-1.14-.72-2.25-1.08-3.39-5.73-17.76-13.11-37.26-22.08-57.84-1.65-3.81-3.39-7.68-5.13-11.58-.69.06-1.35.12-2.01.18-8.61.87-17.67 1.95-24.75 6.84-7.11 4.98-11.31 15.21-6.72 22.56 4.5 7.29 16.29 11.34 14.43 19.65-19.23 10.83-42.69 9.57-64.08 15.03-12.87 3.27-25.05 9.06-35.73 16.86-.03 0-.03.03-.06.03-3.39 2.55-6.66 5.25-9.72 8.16-1.35 1.29-2.76 2.7-3.96 4.26-.03.03-.03.03-.03.06-1.77 2.25-3.12 4.77-3.39 7.62-.75 8.01 6.54 13.47 14.31 16.95 1.44.66 1.35 2.73-.12 3.24-5.07 2.04-10.02 4.41-14.01 8.1-.03 0-.06.03-.09.06-2.46 2.22-.45 6.39 2.91 5.94.36-.06.81-.09 1.2-.12 3.3-.24 6.39.15 9.06 1.08 4.59 1.62 7.8 4.74 8.13 8.58.48 6.09-6.45 11.58-15.45 12.27-2.19.21-.51 2.82 2.7 3.36 6.39 1.14 12.9-.09 19.2-1.56 7.53-1.8 15.57-4.41 19.83-10.86 1.8-2.73 2.34-6.3 1.8-9.54-.75-4.44-3.54-8.31-7.98-8.76 13.92-1.65 27.72-4.41 41.16-8.25h.03l4.23-1.29c4.02-1.2 8.25-2.67 11.61-5.07 2.1-1.5 3.84-3.27 5.07-5.58 3.12-6.03-1.29-15.57-7.95-14.31 19.35-7.59 39.81-12.03 59.37-19.02 3.12-1.14 6.24-2.34 9.3-3.66z" fill="#FFF" style="animation:em5FgGkcRzi281_c_o 3000ms linear infinite normal forwards" id="developer-animated_svg__em5FgGkcRzi280"></path></g></g></g></g><g id="developer-animated_svg__em5FgGkcRzi282"><g id="developer-animated_svg__em5FgGkcRzi283"><path id="developer-animated_svg__em5FgGkcRzi284" d="M1273.92 336.99c-18.12 16.11-38.82 29.79-59.7 42.12-109.23 64.62-232.62 103.32-358.14 122.19-125.49 18.87-253.32 18.3-379.8 7.89-24.84-2.04-50.1-4.56-72.93-14.58-19.35-8.52-36.9-23.34-45.12-42.51 27.39-31.2 52.86-62.76 81.21-92.55 6.75-7.11 13.65-14.1 20.76-20.97 6-5.73 12.09-11.37 18.42-16.89 7.23-6.36 14.67-12.57 22.47-18.57a426.373 426.373 0 0133.87-23.82c2.94-1.89 5.85-3.72 8.79-5.52 299.13-185.91 519.3-125.22 666.18 0 11.07 9.39 21.75 19.2 31.98 29.34 6.24 6.03 12.27 12.27 18.12 18.57.66.66 1.26 1.35 1.89 2.07 4.11 4.38 8.1 8.79 12 13.23z" opacity="0.2" fill="#000" stroke="none" stroke-width="1"></path><path id="developer-animated_svg__em5FgGkcRzi285" d="M1285.73 307.16l-1006.4 4.59 15.22-22.81a39.456 39.456 0 0132.82-17.55h910.67c11.94 0 23.24 5.41 30.73 14.71l16.96 21.06z" fill="#FFF" stroke="#263238" stroke-width="3" stroke-linecap="round" stroke-linejoin="round"></path><g id="developer-animated_svg__em5FgGkcRzi286"><g id="developer-animated_svg__em5FgGkcRzi287"><path id="developer-animated_svg__em5FgGkcRzi288" d="M800.07 718.08h-55.14c-56.59 0-102.46-45.87-102.46-102.46v-55.14c0-56.59 45.87-102.46 102.46-102.46h55.14c56.58 0 102.45 45.87 102.45 102.46v55.14c0 56.59-45.87 102.46-102.45 102.46z" fill="#757575" stroke="#263238" stroke-width="3" stroke-linecap="round" stroke-linejoin="round"></path><path id="developer-animated_svg__em5FgGkcRzi289" d="M689.74 610.01v36.97c0 11.6 9.4 21 21 21h126.8c11.55 0 20.9-9.31 21.01-20.85.1-11.09.45-23.46 1.04-37.12H689.74z" fill="#999" stroke="#263238" stroke-width="3" stroke-linecap="round" stroke-linejoin="round"></path><g id="developer-animated_svg__em5FgGkcRzi290"><g id="developer-animated_svg__em5FgGkcRzi291"><path id="developer-animated_svg__em5FgGkcRzi292" d="M1153.85 622.37H412.23c-7.83 0-14.86-4.81-17.7-12.11L280.14 316.69c-2.99-7.68 2.67-15.97 10.91-15.97h983.98c8.24 0 13.91 8.29 10.91 15.97l-114.39 293.57a18.996 18.996 0 01-17.7 12.11z" fill="#BFBFBF" stroke="#263238" stroke-width="3" stroke-linecap="round" stroke-linejoin="round"></path><path id="developer-animated_svg__em5FgGkcRzi293" d="M1159.35 596.78h-754.4L301.14 319.32h961.53l-103.32 277.46z" fill="#263238" stroke="none" stroke-width="1"></path></g></g></g><path id="developer-animated_svg__em5FgGkcRzi294" d="M690.55 621.96v11.52h168.18v-11.52H690.55z" fill="#263238" stroke="none" stroke-width="1"></path><g id="developer-animated_svg__em5FgGkcRzi295" stroke="none" stroke-width="1"><g id="developer-animated_svg__em5FgGkcRzi296"><path id="developer-animated_svg__em5FgGkcRzi297" d="M1049.15 584.86H516.42c-2.92 0-5.71-1.33-6.23-2.97l-75.78-240.75c-.85-2.7 1.52-4.9 5.29-4.9h686.18c3.77 0 6.13 2.2 5.28 4.9l-75.77 240.75c-.52 1.64-3.31 2.97-6.24 2.97z" fill="#E81E62"></path><path id="developer-animated_svg__em5FgGkcRzi298" d="M1047.19 579.41h-528.8l-64.4-211.54h657.59l-64.39 211.54z" fill="#263238"></path><g id="developer-animated_svg__em5FgGkcRzi299" fill="#FFF"><path id="developer-animated_svg__em5FgGkcRzi300" d="M594.29 420.39H494.18c-2.47 0-4.1 1.33-3.63 2.97.47 1.64 2.84 2.96 5.29 2.96h99.53c2.46 0 4.22-1.32 3.93-2.96-.3-1.64-2.54-2.97-5.01-2.97z"></path><path id="developer-animated_svg__em5FgGkcRzi301" d="M597.64 438.67H512.5c-2.43 0-4.05 1.28-3.62 2.86.43 1.58 2.74 2.86 5.15 2.86h84.66c2.41 0 4.14-1.28 3.86-2.86-.28-1.58-2.48-2.86-4.91-2.86z"></path><path id="developer-animated_svg__em5FgGkcRzi302" d="M600.88 456.3h-96.61c-2.39 0-3.97 1.25-3.53 2.77.43 1.53 2.7 2.76 5.08 2.76h96.07c2.37 0 4.07-1.23 3.8-2.76-.27-1.52-2.43-2.77-4.81-2.77z" opacity="0.502"></path><path id="developer-animated_svg__em5FgGkcRzi303" d="M604 473.34h-56.74c-2.35 0-3.95 1.2-3.59 2.67.36 1.47 2.54 2.66 4.87 2.66h56.44c2.33 0 4.01-1.19 3.74-2.66-.26-1.47-2.38-2.67-4.72-2.67z"></path><path id="developer-animated_svg__em5FgGkcRzi304" d="M607.02 489.79h-93.35c-2.3 0-3.84 1.16-3.43 2.59.4 1.42 2.59 2.57 4.88 2.57h92.85c2.29 0 3.94-1.15 3.69-2.57-.26-1.43-2.34-2.59-4.64-2.59z"></path><path id="developer-animated_svg__em5FgGkcRzi305" d="M609.94 505.7h-75.38c-2.27 0-3.81 1.13-3.44 2.5.37 1.38 2.5 2.49 4.75 2.49h74.98c2.26 0 3.89-1.11 3.64-2.49-.25-1.37-2.29-2.5-4.55-2.5z"></path><path id="developer-animated_svg__em5FgGkcRzi306" d="M612.76 521.09h-74.15c-2.23 0-3.75 1.09-3.39 2.42.36 1.34 2.45 2.41 4.66 2.41h73.77c2.21 0 3.82-1.07 3.58-2.41-.24-1.33-2.24-2.42-4.47-2.42z"></path><path id="developer-animated_svg__em5FgGkcRzi307" d="M615.49 535.99h-80.9c-2.19 0-3.68 1.05-3.32 2.34.35 1.29 2.41 2.33 4.59 2.33h80.49c2.18 0 3.77-1.04 3.54-2.33-.24-1.29-2.2-2.34-4.4-2.34z"></path><path id="developer-animated_svg__em5FgGkcRzi308" d="M618.14 550.41h-52.26c-2.16 0-3.66 1.02-3.35 2.27.31 1.25 2.3 2.26 4.45 2.26h51.99c2.15 0 3.71-1.01 3.49-2.26-.23-1.25-2.16-2.27-4.32-2.27z" opacity="0.502"></path><path id="developer-animated_svg__em5FgGkcRzi309" d="M590.81 401.44h-74.6c-2.52 0-4.2 1.38-3.76 3.08.44 1.7 2.82 3.07 5.32 3.07h74.17c2.5 0 4.28-1.37 3.98-3.07-.3-1.7-2.59-3.08-5.11-3.08z" opacity="0.502"></path><path id="developer-animated_svg__em5FgGkcRzi310" d="M587.2 381.77H483.33c-2.56 0-4.23 1.44-3.73 3.21.5 1.76 2.98 3.18 5.53 3.18h103.24c2.55 0 4.37-1.42 4.05-3.18-.32-1.77-2.65-3.21-5.22-3.21z"></path><path id="developer-animated_svg__em5FgGkcRzi311" d="M620.7 564.39h-86.08c-2.12 0-3.56.99-3.22 2.2.35 1.21 2.34 2.19 4.46 2.19h85.65c2.11 0 3.65-.98 3.44-2.19-.22-1.21-2.12-2.2-4.25-2.2z"></path><path id="developer-animated_svg__em5FgGkcRzi312" d="M629.45 427.05h19.42l-.97-7.41h-19.56l1.11 7.41z" opacity="0.502"></path><path id="developer-animated_svg__em5FgGkcRzi313" d="M632.16 445.1h19.08l-.94-7.15h-19.21l1.07 7.15z" opacity="0.502"></path><path id="developer-animated_svg__em5FgGkcRzi314" d="M634.78 462.51h18.74l-.9-6.9h-18.88l1.04 6.9z" opacity="0.502"></path><path id="developer-animated_svg__em5FgGkcRzi315" d="M637.3 479.34h18.43l-.88-6.67H636.3l1 6.67z" opacity="0.502"></path><path id="developer-animated_svg__em5FgGkcRzi316" d="M639.74 495.59h18.12l-.85-6.45h-18.23l.96 6.45z" opacity="0.502"></path><path id="developer-animated_svg__em5FgGkcRzi317" d="M642.11 511.31h17.81l-.82-6.23h-17.93l.94 6.23z" opacity="0.502"></path><path id="developer-animated_svg__em5FgGkcRzi318" d="M644.39 526.52h17.53l-.79-6.03h-17.65l.91 6.03z" opacity="0.502"></path><path id="developer-animated_svg__em5FgGkcRzi319" d="M646.6 541.24h17.25l-.77-5.84h-17.36l.88 5.84z" opacity="0.502"></path><path id="developer-animated_svg__em5FgGkcRzi320" d="M648.74 555.5h16.98l-.74-5.65h-17.09l.85 5.65z" opacity="0.502"></path><path id="developer-animated_svg__em5FgGkcRzi321" d="M626.64 408.35h19.78l-1.01-7.69h-19.92l1.15 7.69z" opacity="0.502"></path><path id="developer-animated_svg__em5FgGkcRzi322" d="M623.73 388.95h20.14l-1.04-7.98h-20.3l1.2 7.98z" opacity="0.502"></path><path id="developer-animated_svg__em5FgGkcRzi323" d="M650.82 569.32h16.71l-.72-5.48H650l.82 5.48z" opacity="0.502"></path><path id="developer-animated_svg__em5FgGkcRzi324" d="M753.14 538.33c-.04-1.29 1.7-2.34 3.89-2.34h287.46c2.19 0 3.66 1.05 3.29 2.34-.38 1.29-2.45 2.33-4.63 2.33H757.17c-2.19 0-3.99-1.04-4.03-2.33z"></path><path id="developer-animated_svg__em5FgGkcRzi325" d="M1047.38 525.92H888.21c-2.21 0-3.89-1.07-3.75-2.41.15-1.33 2.08-2.42 4.31-2.42h159.99c2.23 0 3.72 1.09 3.34 2.42-.39 1.34-2.5 2.41-4.72 2.41z"></path><path id="developer-animated_svg__em5FgGkcRzi326" d="M850.44 525.92h-49.51c-2.22 0-4-1.07-3.98-2.41.02-1.33 1.84-2.42 4.07-2.42h49.77c2.23 0 3.96 1.09 3.85 2.42-.1 1.34-1.98 2.41-4.2 2.41z" opacity="0.502"></path><path id="developer-animated_svg__em5FgGkcRzi327" d="M953.77 510.69H729.25c-2.26 0-4.15-1.11-4.24-2.49-.08-1.38 1.69-2.5 3.95-2.5h225.72c2.27 0 3.9 1.12 3.64 2.5-.26 1.38-2.29 2.49-4.55 2.49z"></path><path id="developer-animated_svg__em5FgGkcRzi328" d="M682.3 505.7h16.01c2.26 0 4.2 1.12 4.31 2.5.12 1.38-1.61 2.49-3.87 2.49h-15.91c-2.26 0-4.21-1.11-4.36-2.49-.16-1.38 1.56-2.5 3.82-2.5z" opacity="0.502"></path><path id="developer-animated_svg__em5FgGkcRzi329" d="M986.25 492.38c-.31 1.42-2.41 2.57-4.7 2.57H769.97c-2.29 0-4.17-1.15-4.19-2.57-.03-1.43 1.82-2.59 4.12-2.59h212.72c2.31 0 3.93 1.16 3.63 2.59z"></path><path id="developer-animated_svg__em5FgGkcRzi330" d="M680.61 489.79h60.04c2.31 0 4.22 1.16 4.28 2.59.06 1.42-1.76 2.57-4.05 2.57h-59.72c-2.3 0-4.28-1.15-4.44-2.57-.16-1.43 1.58-2.59 3.89-2.59z"></path><path id="developer-animated_svg__em5FgGkcRzi331" d="M678.85 473.34h230.8c2.34 0 4.08 1.2 3.88 2.67-.2 1.47-2.25 2.66-4.58 2.66H679.42c-2.33 0-4.35-1.19-4.52-2.66-.16-1.47 1.61-2.67 3.95-2.67z"></path><path id="developer-animated_svg__em5FgGkcRzi332" d="M828.7 461.83c-2.38 0-4.25-1.23-4.18-2.76.06-1.52 2.05-2.77 4.43-2.77h121.79c2.38 0 4.1 1.25 3.83 2.77-.26 1.53-2.4 2.76-4.77 2.76H828.7z"></path><path id="developer-animated_svg__em5FgGkcRzi333" d="M677.04 456.3h105.4c2.39 0 4.31 1.25 4.31 2.77-.01 1.53-1.94 2.76-4.31 2.76H677.63c-2.38 0-4.44-1.23-4.61-2.76-.17-1.52 1.63-2.77 4.02-2.77z"></path><path id="developer-animated_svg__em5FgGkcRzi334" d="M1070.78 444.39H780.67c-2.41 0-4.38-1.28-4.39-2.86-.01-1.58 1.95-2.86 4.38-2.86h291.76c2.42 0 4.02 1.28 3.56 2.86-.46 1.58-2.79 2.86-5.2 2.86z"></path><path id="developer-animated_svg__em5FgGkcRzi335" d="M1075.96 426.32H820.68c-2.45 0-4.4-1.32-4.35-2.96.05-1.64 2.1-2.97 4.57-2.97h256.76c2.47 0 4.09 1.33 3.61 2.97-.47 1.64-2.85 2.96-5.31 2.96z"></path><path id="developer-animated_svg__em5FgGkcRzi336" d="M1081.34 407.59h-53.46c-2.5 0-4.21-1.37-3.82-3.07.39-1.7 2.75-3.08 5.27-3.08h53.77c2.52 0 4.16 1.38 3.66 3.08-.49 1.7-2.92 3.07-5.42 3.07z" opacity="0.502"></path><path id="developer-animated_svg__em5FgGkcRzi337" d="M990.48 407.59H794.19c-2.5 0-4.52-1.37-4.51-3.07.01-1.7 2.06-3.08 4.58-3.08h197.45c2.52 0 4.27 1.38 3.93 3.08-.35 1.7-2.66 3.07-5.16 3.07z"></path><path id="developer-animated_svg__em5FgGkcRzi338" d="M687.07 550.41h181.27c2.16 0 3.81 1.02 3.68 2.27-.12 1.25-1.97 2.26-4.11 2.26H687.56c-2.15 0-4.01-1.01-4.15-2.26-.13-1.25 1.5-2.27 3.66-2.27z"></path><path id="developer-animated_svg__em5FgGkcRzi339" d="M688.56 564.39h278.51c2.12 0 3.63.99 3.38 2.2-.26 1.21-2.18 2.19-4.3 2.19H689.03c-2.11 0-3.94-.98-4.07-2.19-.14-1.21 1.48-2.2 3.6-2.2z"></path><path id="developer-animated_svg__em5FgGkcRzi340" d="M980.74 388.16H838.96c-2.55 0-4.55-1.43-4.46-3.18.08-1.77 2.23-3.21 4.8-3.21h142.63c2.57 0 4.37 1.44 4.04 3.21-.34 1.75-2.68 3.18-5.23 3.18z"></path><path id="developer-animated_svg__em5FgGkcRzi341" d="M798.74 388.16H669.77c-2.55 0-4.77-1.43-4.97-3.18-.2-1.77 1.72-3.21 4.29-3.21h129.75c2.56 0 4.61 1.44 4.58 3.21-.04 1.75-2.13 3.18-4.68 3.18z" opacity="0.502"></path><path id="developer-animated_svg__em5FgGkcRzi342" d="M908.56 550.41c2.16 0 3.76 1.02 3.58 2.27-.18 1.25-2.07 2.26-4.22 2.26h-14.01c-2.14 0-3.76-1.01-3.61-2.26.15-1.25 2.02-2.27 4.18-2.27h14.08z" opacity="0.502"></path><path id="developer-animated_svg__em5FgGkcRzi343" d="M736.61 538.33c.07 1.29-1.65 2.33-3.83 2.33h-19.09c-2.18 0-4.03-1.04-4.14-2.33-.1-1.29 1.59-2.34 3.79-2.34h19.18c2.19 0 4.03 1.05 4.09 2.34z" opacity="0.502"></path><path id="developer-animated_svg__em5FgGkcRzi344" d="M966.88 476.01c-.28 1.47-2.4 2.66-4.73 2.66h-22.31c-2.33 0-4.03-1.19-3.8-2.66.23-1.47 2.32-2.67 4.66-2.67h22.44c2.34 0 4.02 1.2 3.74 2.67z" opacity="0.502"></path><path id="developer-animated_svg__em5FgGkcRzi345" d="M1036.5 489.79c2.31 0 3.86 1.16 3.48 2.59-.38 1.42-2.55 2.57-4.84 2.57h-17.79c-2.29 0-3.87-1.15-3.53-2.57.35-1.43 2.5-2.59 4.8-2.59h17.88z" opacity="0.502"></path><path id="developer-animated_svg__em5FgGkcRzi346" d="M745.53 444.39c-2.41 0-4.42-1.28-4.49-2.86-.06-1.58 1.85-2.86 4.28-2.86h18.94c2.43 0 4.41 1.28 4.43 2.86.03 1.58-1.91 2.86-4.33 2.86h-18.83z" opacity="0.502"></path></g></g><g id="developer-animated_svg__em5FgGkcRzi347" fill="#FFF"><path id="developer-animated_svg__em5FgGkcRzi348" d="M487.72 352.01c1.46 4.92-1.37 8.86-6.32 8.86s-10.23-3.94-11.81-8.86c-1.61-4.97 1.18-9.06 6.25-9.06 5.06 0 10.39 4.09 11.88 9.06z"></path><path id="developer-animated_svg__em5FgGkcRzi349" d="M512.13 352.16c1.31 4.91-1.65 8.85-6.6 8.85-4.94 0-10.09-3.94-11.52-8.85-1.44-4.98 1.48-9.06 6.54-9.06 5.06 0 10.26 4.08 11.58 9.06z"></path><path id="developer-animated_svg__em5FgGkcRzi350" d="M536.83 352.01c1.15 4.92-1.94 8.86-6.89 8.86-4.94 0-9.97-3.94-11.23-8.86-1.29-4.97 1.77-9.06 6.83-9.06 5.07 0 10.13 4.09 11.29 9.06z"></path></g></g><g id="developer-animated_svg__em5FgGkcRzi351" fill="#FFF" stroke="none" stroke-width="1"><path id="developer-animated_svg__em5FgGkcRzi352" d="M301.14 319.32l80.84 216.08 97.53-216.08H301.14z" opacity="0.102"></path><path id="developer-animated_svg__em5FgGkcRzi353" d="M437.54 596.78l161.79-277.46h169.36L530.58 596.78h-93.04z" opacity="0.102"></path><path id="developer-animated_svg__em5FgGkcRzi354" d="M841.68 317.96L589.51 596.78h38.83l261.22-277.46-47.88-1.36z" opacity="0.102"></path><path id="developer-animated_svg__em5FgGkcRzi355" d="M891.47 596.78l277.15-277.46h39.11L921.98 596.78h-30.51z" opacity="0.102"></path></g></g></g></g><g id="developer-animated_svg__em5FgGkcRzi356"><g id="developer-animated_svg__em5FgGkcRzi357"><g id="developer-animated_svg__em5FgGkcRzi358"><g id="developer-animated_svg__em5FgGkcRzi359"><g id="developer-animated_svg__em5FgGkcRzi360"><path id="developer-animated_svg__em5FgGkcRzi361" d="M515.71 717.2h-63.29c-8.22 0-14.88 6.66-14.88 14.88v30.79c0 8.22 6.66 14.88 14.88 14.88h16.54l12.53 28.41 17.67-28.41h16.55c8.21 0 14.87-6.66 14.87-14.88v-30.79c0-8.22-6.66-14.88-14.87-14.88z" fill="#FFF" stroke="#263238" stroke-width="3" stroke-linecap="round" stroke-linejoin="round"></path></g></g><g id="developer-animated_svg__em5FgGkcRzi362" fill="#263238" stroke="none" stroke-width="1"><path id="developer-animated_svg__em5FgGkcRzi363" d="M475.27 734.81c0-1.62 1.31-2.89 3.08-2.89s3.08 1.2 3.08 2.78c0 1.69-1.27 3-3.08 3-1.77 0-3.08-1.27-3.08-2.89zm.65 6.29h4.82v20.58h-4.82V741.1z"></path><path id="developer-animated_svg__em5FgGkcRzi364" d="M492.37 740.02v1.23h5.67v3.85h-5.51v16.58h-4.82V745.1h-3.39v-3.85h3.39v-1.31c0-4.32 2.58-7.13 7.36-7.13 1.66 0 3.28.35 4.36 1.12l-1.35 3.62c-.73-.5-1.66-.85-2.66-.85-2.01 0-3.05 1.12-3.05 3.32z"></path></g></g><g id="developer-animated_svg__em5FgGkcRzi365"><g id="developer-animated_svg__em5FgGkcRzi366"><g id="developer-animated_svg__em5FgGkcRzi367"><path id="developer-animated_svg__em5FgGkcRzi368" d="M708.36 721.51h-63.29c-8.22 0-14.88 6.66-14.88 14.88v30.79c0 8.22 6.66 14.88 14.88 14.88h16.54l12.53 28.41 17.67-28.41h16.55c8.21 0 14.87-6.66 14.87-14.88v-30.79c0-8.22-6.66-14.88-14.87-14.88z" fill="#FFF" stroke="#263238" stroke-width="3" stroke-linecap="round" stroke-linejoin="round"></path></g></g><g id="developer-animated_svg__em5FgGkcRzi369" fill="#263238" stroke="none" stroke-width="1"><path id="developer-animated_svg__em5FgGkcRzi370" d="M658.37 757.24h-16.15c.58 3.01 3.08 4.94 6.67 4.94 2.31 0 4.12-.74 5.58-2.24l2.59 2.97c-1.85 2.19-4.74 3.35-8.29 3.35-6.9 0-11.37-4.43-11.37-10.56 0-6.13 4.51-10.52 10.64-10.52 6.01 0 10.4 4.2 10.4 10.64 0 .38-.03.96-.07 1.42zm-16.19-3.2h11.68c-.39-2.97-2.66-5.01-5.82-5.01-3.12 0-5.4 2.01-5.86 5.01z" fill-rule="evenodd"></path><path id="developer-animated_svg__em5FgGkcRzi371" d="M663.06 737.39h4.82v28.6h-4.82v-28.6z"></path><path id="developer-animated_svg__em5FgGkcRzi372" d="M671.84 763.95l1.85-3.66c1.81 1.19 4.58 2.04 7.17 2.04 3.04 0 4.31-.85 4.31-2.28 0-3.93-12.72-.23-12.72-8.44 0-3.89 3.51-6.43 9.06-6.43 2.74 0 5.86.65 7.71 1.77l-1.85 3.66c-1.97-1.15-3.93-1.54-5.9-1.54-2.93 0-4.31.96-4.31 2.31 0 4.17 12.72.46 12.72 8.52 0 3.85-3.55 6.36-9.33 6.36-3.43 0-6.86-1-8.71-2.31z"></path><path id="developer-animated_svg__em5FgGkcRzi373" d="M713.3 757.24h-16.15c.58 3.01 3.08 4.94 6.67 4.94 2.31 0 4.12-.74 5.59-2.24l2.58 2.97c-1.85 2.19-4.74 3.35-8.29 3.35-6.9 0-11.37-4.43-11.37-10.56 0-6.13 4.51-10.52 10.64-10.52 6.01 0 10.41 4.2 10.41 10.64 0 .38-.04.96-.08 1.42zm-16.19-3.2h11.68c-.39-2.97-2.66-5.01-5.82-5.01-3.12 0-5.4 2.01-5.86 5.01z" fill-rule="evenodd"></path></g></g><g id="developer-animated_svg__em5FgGkcRzi374"><g id="developer-animated_svg__em5FgGkcRzi375"><g id="developer-animated_svg__em5FgGkcRzi376"><path id="developer-animated_svg__em5FgGkcRzi377" d="M895.13 719.69h-63.29c-8.21 0-14.87 6.66-14.87 14.87v30.79c0 8.22 6.66 14.88 14.87 14.88h16.55l12.53 28.41 17.67-28.41h16.54c8.22 0 14.88-6.66 14.88-14.88v-30.79c0-8.21-6.66-14.87-14.88-14.87z" fill="#FFF" stroke="#263238" stroke-width="3" stroke-linecap="round" stroke-linejoin="round"></path></g></g><g id="developer-animated_svg__em5FgGkcRzi378" fill="#263238" stroke="none" stroke-width="1"><path id="developer-animated_svg__em5FgGkcRzi379" d="M846.36 742.5v1.24h5.67v3.85h-5.51v16.58h-4.82v-16.58h-3.39v-3.85h3.39v-1.31c0-4.32 2.58-7.13 7.36-7.13 1.66 0 3.28.34 4.36 1.11l-1.36 3.63c-.73-.5-1.65-.85-2.65-.85-2.01 0-3.05 1.12-3.05 3.31z"></path><path id="developer-animated_svg__em5FgGkcRzi380" d="M853.25 753.87c0-6.16 4.63-10.52 10.95-10.52 6.4 0 10.99 4.36 10.99 10.52 0 6.17-4.59 10.56-10.99 10.56-6.32 0-10.95-4.39-10.95-10.56zm17.08 0c0-3.93-2.62-6.43-6.13-6.43-3.47 0-6.09 2.5-6.09 6.43 0 3.93 2.62 6.44 6.09 6.44 3.51 0 6.13-2.51 6.13-6.44z" fill-rule="evenodd"></path><path id="developer-animated_svg__em5FgGkcRzi381" d="M891.7 743.35v4.59a5.85 5.85 0 00-1.11-.12c-3.67 0-5.98 2.16-5.98 6.36v9.99h-4.82v-20.59h4.59v3.01c1.39-2.16 3.89-3.24 7.32-3.24z"></path></g></g><g id="developer-animated_svg__em5FgGkcRzi382"><g id="developer-animated_svg__em5FgGkcRzi383"><g id="developer-animated_svg__em5FgGkcRzi384"><path id="developer-animated_svg__em5FgGkcRzi385" d="M1079.21 717.2h-63.29c-8.21 0-14.87 6.66-14.87 14.88v30.79c0 8.22 6.66 14.88 14.87 14.88h16.55l12.53 28.41 17.67-28.41h16.54c8.22 0 14.88-6.66 14.88-14.88v-30.79c0-8.22-6.66-14.88-14.88-14.88z" fill="#FFF" stroke="#263238" stroke-width="3" stroke-linecap="round" stroke-linejoin="round"></path></g></g><g id="developer-animated_svg__em5FgGkcRzi386"><path id="developer-animated_svg__em5FgGkcRzi387" d="M1039.35 740.08h17.77v3.86h-17.77v-3.86zm0 9.33h17.77v3.85h-17.77v-3.85z" fill="#263238" stroke="none" stroke-width="1"></path></g></g><g id="developer-animated_svg__em5FgGkcRzi388"><g id="developer-animated_svg__em5FgGkcRzi389"><g id="developer-animated_svg__em5FgGkcRzi390"><path id="developer-animated_svg__em5FgGkcRzi391" d="M612.18 681.56h-63.29c-8.22 0-14.88 6.67-14.88 14.88v30.79c0 8.22 6.66 14.88 14.88 14.88h16.54l12.53 28.41 17.67-28.41h16.55c8.21 0 14.87-6.66 14.87-14.88v-30.79c0-8.21-6.66-14.88-14.87-14.88z" fill="#FFF" stroke="#263238" stroke-width="3" stroke-linecap="round" stroke-linejoin="round"></path></g></g><g id="developer-animated_svg__em5FgGkcRzi392" fill="#263238" stroke="none" stroke-width="1"><path id="developer-animated_svg__em5FgGkcRzi393" d="M565.64 694.36h9.21v3.86h-4.39v28.36h4.39v3.86h-9.21v-36.08z"></path><path id="developer-animated_svg__em5FgGkcRzi394" d="M586.79 730.44v-3.86h4.35v-28.36h-4.35v-3.86h9.17v36.08h-9.17z"></path></g></g><g id="developer-animated_svg__em5FgGkcRzi395"><g id="developer-animated_svg__em5FgGkcRzi396"><g id="developer-animated_svg__em5FgGkcRzi397"><path id="developer-animated_svg__em5FgGkcRzi398" d="M800.34 678.42h-63.29c-8.22 0-14.88 6.66-14.88 14.87v30.8c0 8.21 6.66 14.87 14.88 14.87h16.54l12.54 28.41 17.67-28.41h16.54c8.21 0 14.88-6.66 14.88-14.87v-30.8c0-8.21-6.67-14.87-14.88-14.87z" fill="#FFF" stroke="#263238" stroke-width="3" stroke-linecap="round" stroke-linejoin="round"></path></g></g><g id="developer-animated_svg__em5FgGkcRzi399" fill="#263238" stroke="none" stroke-width="1"><path id="developer-animated_svg__em5FgGkcRzi400" d="M755.81 709.13c1.54.5 2.28 1.54 2.28 3.93v7.32c0 1.85.92 2.93 2.85 2.93h.81v3.85h-1.93c-4.35 0-6.55-2.19-6.55-6.28v-7.94c0-1.27-.66-1.85-1.73-1.85h-1.28v-3.93h1.28c1.07 0 1.73-.58 1.73-1.85v-7.94c0-4.09 2.2-6.28 6.55-6.28h1.93v3.85h-.81c-1.93 0-2.85 1.08-2.85 2.93v7.32c0 2.39-.74 3.43-2.28 3.94z"></path><path id="developer-animated_svg__em5FgGkcRzi401" d="M785.21 707.16v3.93h-1.31c-1.04 0-1.7.58-1.7 1.85v7.94c0 4.09-2.24 6.28-6.59 6.28h-1.93v-3.85h.81c1.97 0 2.89-1.08 2.89-2.93v-7.32c0-2.39.7-3.43 2.24-3.93-1.54-.51-2.24-1.55-2.24-3.94v-7.32c0-1.85-.92-2.93-2.89-2.93h-.81v-3.85h1.93c4.35 0 6.59 2.19 6.59 6.28v7.94c0 1.27.66 1.85 1.7 1.85h1.31z"></path></g></g><g id="developer-animated_svg__em5FgGkcRzi402"><g id="developer-animated_svg__em5FgGkcRzi403"><g id="developer-animated_svg__em5FgGkcRzi404"><path id="developer-animated_svg__em5FgGkcRzi405" d="M986.51 672.18h-63.29c-8.22 0-14.88 6.66-14.88 14.87v30.79c0 8.22 6.66 14.88 14.88 14.88h16.54l12.53 28.41 17.67-28.41h16.55c8.21 0 14.87-6.66 14.87-14.88v-30.79c0-8.21-6.66-14.87-14.87-14.87z" fill="#FFF" stroke="#263238" stroke-width="3" stroke-linecap="round" stroke-linejoin="round"></path></g></g><g id="developer-animated_svg__em5FgGkcRzi406"><path id="developer-animated_svg__em5FgGkcRzi407" d="M952.34 694.97c0-1.93 1.43-3.2 3.17-3.2 1.73 0 3.16 1.27 3.16 3.2 0 1.85-1.43 3.2-3.16 3.2-1.74 0-3.17-1.35-3.17-3.2zm6.33 14.68c0 .85-.2 1.54-.89 3.32l-1.97 5.43h-3.12l1.54-5.9c-1.07-.46-1.81-1.46-1.81-2.85 0-1.92 1.35-3.2 3.12-3.2 1.82 0 3.13 1.31 3.13 3.2z" fill="#263238" stroke="none" stroke-width="1"></path></g></g><g transform="translate(770.715 1166.02)" style="animation:em5FgGkcRzi408_to__to 3000ms linear infinite normal forwards"><g id="developer-animated_svg__em5FgGkcRzi408" transform="translate(-770.715 -1166.02)"><g id="developer-animated_svg__em5FgGkcRzi409"><g id="developer-animated_svg__em5FgGkcRzi410"><path id="developer-animated_svg__em5FgGkcRzi411" d="M739.07 1210.5h63.29c8.21 0 14.88-6.66 14.88-14.88v-30.79c0-8.22-6.67-14.88-14.88-14.88h-16.54l-4.83-28.41-25.38 28.41h-16.54c-8.22 0-14.88 6.66-14.88 14.88v30.79c0 8.22 6.66 14.88 14.88 14.88z" fill="#FFF" stroke="#263238" stroke-width="3" stroke-linecap="round" stroke-linejoin="round"></path></g></g><g id="developer-animated_svg__em5FgGkcRzi412" fill="#263238" stroke="none" stroke-width="1"><path id="developer-animated_svg__em5FgGkcRzi413" d="M761.32 1173.9l-13.3 4.97 13.3 4.97v4.01l-17.77-6.9v-4.16l17.77-6.9v4.01z"></path><path id="developer-animated_svg__em5FgGkcRzi414" d="M775.34 1159.9h4.31l-12.72 36.31h-4.31l12.72-36.31z"></path><path id="developer-animated_svg__em5FgGkcRzi415" d="M798.34 1176.79v4.16l-17.77 6.9v-4.01l13.3-4.97-13.3-4.97v-4.01l17.77 6.9z"></path></g></g></g><g id="developer-animated_svg__em5FgGkcRzi416"><g id="developer-animated_svg__em5FgGkcRzi417"><g id="developer-animated_svg__em5FgGkcRzi418"><g id="developer-animated_svg__em5FgGkcRzi419"><path id="developer-animated_svg__em5FgGkcRzi420" d="M336.71 986.26H400c8.22 0 14.88-6.66 14.88-14.87v-30.8c0-8.21-6.66-14.87-14.88-14.87h-16.54l3.6-28.41-33.81 28.41h-16.54c-8.22 0-14.88 6.66-14.88 14.87v30.8c0 8.21 6.66 14.87 14.88 14.87z" fill="#FFF" stroke="#263238" stroke-width="3" stroke-linecap="round" stroke-linejoin="round"></path></g></g></g><g id="developer-animated_svg__em5FgGkcRzi421" stroke="none" stroke-width="1"><path id="developer-animated_svg__em5FgGkcRzi422" d="M355.47 966.74c0-1.66 1.31-2.97 3.13-2.97 1.77 0 3.04 1.31 3.04 2.97 0 1.65-1.27 3-3.04 3-1.82 0-3.13-1.35-3.13-3zm.27-24.25h5.71l-.97 18.04h-3.81l-.93-18.04z" fill="#263138"></path><path id="developer-animated_svg__em5FgGkcRzi424" d="M366.41 949.39h17.77v3.85h-17.77v-3.85zm0 9.33h17.77v3.85h-17.77v-3.85z" fill="#263238"></path></g></g></g></g><g id="developer-animated_svg__em5FgGkcRzi425"><g id="developer-animated_svg__em5FgGkcRzi426"><g transform="translate(1291.445 956.376)" style="animation:em5FgGkcRzi427_to__to 3000ms linear infinite normal forwards"><g id="developer-animated_svg__em5FgGkcRzi427" transform="translate(-1291.445 -956.376)"><g id="developer-animated_svg__em5FgGkcRzi428"><g id="developer-animated_svg__em5FgGkcRzi429" clip-path="url(#developer-animated_svg__em5FgGkcRzi435)"><g id="developer-animated_svg__em5FgGkcRzi430"><g id="developer-animated_svg__em5FgGkcRzi431" stroke="none" stroke-width="1"><path id="developer-animated_svg__em5FgGkcRzi432" d="M1324.3 952.14c2.64 37.13-3.74 74.46-14.44 110.12 26.82-22.01 39.15-56.63 50.3-89.48 8.1-23.85 16.3-48.45 14.84-73.6-1.46-25.15-14.94-51.31-38.54-60.12-11.53-4.31-24.95-3.99-36.37.59-19.77 7.93-8.95 14.37-.65 28.57 14.87 25.43 22.77 54.66 24.86 83.92z" fill="#92E3A9"></path><path id="developer-animated_svg__em5FgGkcRzi433" d="M1324.3 952.14c2.64 37.13-3.74 74.46-14.44 110.12 26.82-22.01 39.15-56.63 50.3-89.48 8.1-23.85 16.3-48.45 14.84-73.6-1.46-25.15-14.94-51.31-38.54-60.12-11.53-4.31-24.95-3.99-36.37.59-19.77 7.93-8.95 14.37-.65 28.57 14.87 25.43 22.77 54.66 24.86 83.92z" opacity="0.502" fill="#FFF"></path></g><path id="developer-animated_svg__em5FgGkcRzi434" d="M1350.1 951.35c0 12.36-1.03 24.33-2.92 35.6-8.7 51.91-35.99 89.79-68.28 89.79-2.89 0-5.78-.32-8.57-.9-35.25-7.48-62.6-60.35-62.6-124.49 0-69.24 31.87-93.73 71.17-93.73 39.32 0 71.2 24.49 71.2 93.73z" fill="#FFF" stroke="#263238" stroke-width="3"></path></g><clipPath id="developer-animated_svg__em5FgGkcRzi435"><path id="developer-animated_svg__em5FgGkcRzi436" d="M1350.1 951.35c0 12.36-1.03 24.33-2.92 35.6-8.7 51.91-35.99 89.79-68.28 89.79-2.89 0-5.78-.32-8.57-.9-35.25-7.48-62.6-60.35-62.6-124.49 0-69.24 31.87-93.73 71.17-93.73 39.32 0 71.2 24.49 71.2 93.73z" fill="#000" stroke="none" stroke-width="1"></path></clipPath></g><g id="developer-animated_svg__em5FgGkcRzi437" stroke="#263238" stroke-width="3"><path id="developer-animated_svg__em5FgGkcRzi438" d="M1317.14 1015.06c-4.75 15.98-12.64 31.01-23.35 43.8" fill="#FFF"></path><path id="developer-animated_svg__em5FgGkcRzi439" d="M1319.41 1006.34c-.38 1.69-.79 3.38-1.24 5.05" fill="none"></path><path id="developer-animated_svg__em5FgGkcRzi440" d="M1319.22 951.19c3.8 15.97 4.17 32.67 1.42 48.84" fill="#FFF"></path></g><path id="developer-animated_svg__em5FgGkcRzi441" d="M1207.72 951.36c53.94-21.33 101.39-21.33 142.36 0" fill="none" stroke="#263238" stroke-width="3"></path><path id="developer-animated_svg__em5FgGkcRzi442" d="M1278.9 857.62c5.4 20 8.42 46.26 9.04 78.79" fill="#FFF" stroke="#263238" stroke-width="3"></path><path id="developer-animated_svg__em5FgGkcRzi443" d="M1290.19 894.11c1.04 9.33-.57 17.27-3.6 17.75-3.03.48-6.33-6.69-7.37-16.01-1.04-9.33.57-17.28 3.6-17.75 3.04-.48 6.34 6.69 7.37 16.01z" fill="#BFBFBF" stroke="#263238" stroke-width="3" stroke-linecap="round" stroke-linejoin="round"></path></g></g></g><path id="developer-animated_svg__em5FgGkcRzi444" d="M1246.98 1100.73h-94.86c-11.82 0-21.54-8.76-23.07-20.13-.21-1.02-.27-2.1-.27-3.21V853.62c0-1.08.06-2.16.27-3.24 1.53-11.37 11.25-20.1 23.07-20.1h269.16c4.08 0 7.89 1.05 11.19 2.88" fill="none" stroke="#263238" stroke-width="3"></path></g></g></svg>