<svg version="1.2" xmlns="http://www.w3.org/2000/svg" viewBox="0 0 500 500" width="500" height="500"><style>.a{fill:#ff204e}.b{fill:#ffb700}.c{opacity:.3;fill:#ffcc5e}.d{fill:#f0f4f8}.e{fill:#ff8a8c}.f{fill:#ec8b1e}.g{fill:#ffbc00}.h{fill:#ffcc5e}.i{fill:#d1730c}.j{fill:#ffaba7}.k{fill:#0f3358}.l{fill:#e6ebf0}.m{fill:#d5dce2}.n{fill:#171228}.o{fill:#072743}.p{fill:#6c3509}.q{fill:#f23336}.r{fill:#161818}.s{fill:#763231}.t{fill:#fceacc}.u{fill:#e9cdad}.v{fill:#fff0e7}.w{fill:#ffd4c8}</style><path class="a" d="m382.3 423.9v76.1h-270.3v-76.1z"/><path class="b" d="m166.6 433h-54.6v-9.1h54.6z"/><path class="a" d="m327.8 312.5v158.1h-161.2v-158.1z"/><path class="c" d="m327.8 312.5v73.9q-1.2 0.4-2.5 0.8c-28.4 9-59.6 10.6-88 1.5-7.3-2.3-14.4-5.4-20.6-9.9-13.2-9.4-21.6-25-22.8-41.2-0.7-8.5 0.6-17 3.5-25.1z"/><path class="b" d="m382.3 433h-54.5v-9.1h54.5z"/><path class="b" d="m327.8 323.1h-161.2v-10.6h161.2z"/><path class="c" d="m327.8 312.5v106.5c-5.7 2-11.4 3.7-17.2 5.3-26.9 7.1-55.3 11-82.7 5.8-23.6-4.5-46.4-16.3-61.3-34.8v-82.8z"/><path class="d" d="m255.9 346.4v66.5h-17.4v-52.3h-12.8v-14.2z"/><path class="e" d="m188.3 150.4l-5.7 9.5 6.4 5.5 5.4-5.3-2.9-9.4z"/><path class="f" d="m180.9 137.4c-3-2.9-4.5-6.2-4.4-9.8 0-6.1 4.6-10.9 4.8-11.1l1.2-1.2 5.9 8.5-2.3 1.7-4-5.6c-1.1 1.6-2.8 4.4-2.8 7.7 0 2.7 1.2 5.3 3.5 7.6z"/><path class="g" d="m198.7 145.3c4 0.7 7.6-0.1 10.4-2.2 5-3.6 6.2-10.1 6.2-10.4l0.3-1.6-10.4 0.1v2.9l6.9-0.1c-0.6 1.9-1.9 4.9-4.6 6.8-2.2 1.6-5 2.2-8.3 1.6z"/><path class="g" d="m183.6 162.7c-2.2 0.2-3.8-0.6-4.8-1.4-0.9-0.6-1.4-1.2-1.4-1.2 2.8-1.2 11.4-19.5 11.4-19.5l4.8 1.7c-0.6 0.8-1.2 1.7-1.7 2.6-2.2 4.5-8.3 17.8-8.3 17.8z"/><path class="f" d="m191.9 144.9c-3.6 2-11.6 12.6-13.1 16.4-0.9-0.6-1.4-1.2-1.4-1.2 2.8-1.2 11.4-19.5 11.4-19.5l4.8 1.7c-0.6 0.8-1.2 1.7-1.7 2.6z"/><path class="g" d="m186.7 168.7c-10.4 1.6-14.9-7.7-14.9-7.7q0.5-0.2 1-0.4c9.5-3 12.7 3.7 13.6 6.7 0.2 0.8 0.3 1.4 0.3 1.4z"/><path class="f" d="m186.7 168.7c-10.4 1.6-14.9-7.7-14.9-7.7q0.5-0.2 1-0.4c1.5 2.4 3.4 4.3 6 5.5 2.3 1.1 5 1.5 7.6 1.2 0.2 0.8 0.3 1.4 0.3 1.4z"/><path class="h" d="m181.9 166.1c0.7 0.1 1.5 0.1 1.9-0.4 0.4-0.4 0.5-1.1 0.2-1.6-0.5-1-1.6-1.7-2.5-2.2-1.2-0.6-2.4-1.2-3.6-1.5-2-0.4-2.7 1-1.4 2.6 1.4 1.7 3.3 2.8 5.4 3.1z"/><path class="g" d="m203.2 146.3c-0.9 1.2-7.5 2.8-13.2 1.2q-1-0.3-2-0.7-0.1-0.1-0.2-0.1c-6.2-2.9-9.2-8.6-8.6-11.2 0.6-2.7 11.6-17.9 11.6-17.9 6.6 1.9 19.5 8.3 19.5 8.3 0 0-0.2 0.6-0.5 1.6-0.5 1.5-1.3 3.9-2.1 6.5-1.8 5.4-4 11.6-4.5 12.3z"/><path class="f" d="m190.7 120.6c0 0-14 13.3-2.7 26.2q-0.1-0.1-0.2-0.1c-6.2-2.9-9.2-8.6-8.6-11.2 0.6-2.7 11.6-17.9 11.6-17.9 6.6 1.9 19.5 8.3 19.5 8.3 0 0-0.2 0.6-0.5 1.6-4.4 1.6-12.6 2.9-19.1-6.9z"/><path class="g" d="m190.8 117.6c0 0 11.8-3.5 19.5 8.3 0 0-12.6 1.6-19.5-8.3z"/><path class="f" d="m207.7 125.3c0 0-1.6 0-4-0.5-2.3-0.5-5.3-1.5-8.1-3.6q-1.4-1.1-2.6-2.5c0 0 8.3-1.2 14.7 6.6z"/><path class="i" d="m203.7 124.8c-2.3-0.5-5.3-1.5-8.1-3.6 2.3 0.3 5.3 1.3 8.1 3.6z"/><path class="h" d="m203.2 146.3c-0.9 1.2-7.5 2.8-13.2 1.2-0.9-2.3-1.4-4.7-1.5-7.2-0.1-1.4-0.1-3 0.4-4.4 0.9-2.6 3.1-4.6 5.7-5.4 2.6-0.8 5.3-0.6 7.8 0.3 2 0.7 3.7 1.8 5.3 3.2-1.8 5.4-4 11.6-4.5 12.3z"/><path class="j" d="m196.3 157.6l-2.9-9.1-12.5-2.3c0 0-1.1 1.6 0.8 2.9 1.8 1.2 6 2.5 6 2.5 0 0 2.1 9.7 5.9 9.4 3.7-0.2 2.7-3.4 2.7-3.4z"/><path class="k" d="m251.3 171.1c0 0-18.8 6.4-22.3 6.8-3.4 0.4-31.5-23.3-31.5-23.3l-10.5 11.7c0 0 33.2 29.8 38 30.3 4.9 0.6 21-4.5 21-4.5z"/><path class="j" d="m445.7 340.4c0 0-2.9-3.4-5.2-6.4q0 0 0 0-0.3-0.5-0.7-0.9-0.1-0.2-0.3-0.4-0.1-0.2-0.3-0.5-0.6-0.9-1-1.5l-3.1 0.2h-1.2q-0.1 0.2-0.1 0.4-0.1 0.1-0.1 0.3-0.1 0.3-0.1 0.7 0 0 0 0c-0.3 1.7-0.2 3.3 0 4.8 0.4 2.2 1.1 3.9 1.7 4.5 1 1 4.1 6.4 4.4 6 0.4-0.4 0.8-1.5 0.3-2.4-0.6-0.9-2.6-4.3-1.9-5.2 0.6-0.9 6.8 5 7.2 6.4 0.4 1.1 2.4 3.9 3.1 3.8q0.1 0 0.1-0.3c-0.1-1.6-2.8-9.5-2.8-9.5z"/><path class="j" d="m326.6 236c-0.9 0.1-5.9 0.7-5.9 0.7 0 0-0.2 0.3-0.2 0.8q-0.1 0-0.1 0c-0.8 0-1.2 0.5-1.4 0.9-0.2 0.4-0.3 0.9-0.7 1.1-0.2 0.1-0.4 0.4-0.5 0.7-0.3 0.7-0.3 1.4-0.3 1.4l0.5 1.9 7.2 4.6 2.4 1.6 4.3-5.8c0.2-0.2-4.4-8-5.3-7.9z"/><path class="e" d="m311.9 239.5c0 0 3.9 4 6.1 4.5 2.3 0.4 4.3 0.1 4.3 0.1l-0.3-6.8-3.1-2.1-4.8 0.4z"/><path class="e" d="m324.8 238.6c0.4 0.9 0.5 2.1 0.3 2 0 0-0.6 0.5-2.2 0.3-1.6-0.2-2.9-2.7-2.9-2.7l-1 0.2c0.2-0.4 0.6-0.9 1.4-0.9 1.6-0.2 2.7 0 2.7 0z"/><path class="j" d="m313 233.1c0 0 8.5 0.4 8.9 1.2 0.5 0.9 2.7 5.4 2.7 5.4 0 0-0.9 1.2-1.6 0.8-0.8-0.5-2.6-3-2.6-3 0 0-4.7 2.7-7-0.2-2.2-2.9-0.4-4.2-0.4-4.2z"/><path class="e" d="m325.2 248.1l-7.2-4.6-0.5-1.9c0 0 0-0.7 0.3-1.4 0.4 0.1 0.9 0.1 0.9 0.2 0 0.1 0.1 0.3 0.1 0.3 0 0 1.3-0.2 1.4 0.1 0.2 0.2 0.2 0.2 0.2 0.2 0 0 1.7-0.3 2 0 0.2 0.3 0.2 0.5 0.2 0.5 0 0 1.5-0.3 1.6-0.1 0.2 0.2 1.9 3.4 1.6 5-0.1 0.8-0.4 1.4-0.6 1.7z"/><path class="j" d="m322.6 247c0 0-1.7 0.5-2.5-0.1-0.7-0.7 0.5-5.5 0.5-5.5l1.3-0.1c0 0 1.7 4.6 0.7 5.7z"/><path class="j" d="m324.7 247.4c0 0-1.6 0.5-2.4-0.1-0.7-0.7 0.5-5.5 0.5-5.5l1.3-0.1c0 0 1.7 4.6 0.6 5.7z"/><path class="j" d="m320.3 246.2c0 0-1.5 0.5-2.2-0.1-0.7-0.5 0.5-4.9 0.5-4.9h1.1c0 0 1.5 4.1 0.6 5z"/><path class="j" d="m318 245.2c0 0-1.3 0.2-1.8-0.4-0.5-0.5 1.1-4 1.1-4l0.9 0.1c0 0 0.8 3.6-0.2 4.3z"/><path class="l" d="m388.6 262.6l-4.2 17.1c0 0-1-0.2-2.6-0.4-7.4-1.2-29.4-4.8-32.5-5.4-3.7-0.7-22.9-23.2-22.9-23.2l1.7-2.2 4.4-5.7c0 0 17.3 15.8 22.2 18.9 2.8 2.6 33.9 0.9 33.9 0.9z"/><path class="m" d="m383.5 275.8l-1.7 3.5c-7.4-1.2-29.4-4.8-32.5-5.4-3.7-0.7-22.9-23.2-22.9-23.2l1.7-2.2c3.4 4.2 17 20.6 21.3 22.2 5 1.9 34.1 5.1 34.1 5.1z"/><path class="n" d="m398.3 420.3c0.4 0.8 4.1 7.2 4.2 8.8 0.1 2.1-1.6 8.1-1.9 9.8-0.3 1.1 1.1 1.8 1.1 1.8l9.1-12c0 0-1.6-4.5-0.7-4.7 0.9-0.3 3 0.8 3 0.8l3.1-4c0 0-6.2-3.9-9-4.9z"/><path class="n" d="m356.7 411.1c-0.5 0.9-3.7 5.7-5.1 6.8-1.8 1.4-8.3 3.7-10.1 4.5-1.2 0.5-1 2.1-1 2.1l16.8 0.7c0 0 3.1-4.4 3.9-3.7 0.7 0.7 1.1 3.3 1.1 3.3l5.6 0.2c0 0-0.7-10.9-1.5-14.1z"/><path class="o" d="m374.9 328.9c0 0-0.8 39.7 0 44.5 1.2 7 19.8 50.9 19.8 50.9l18.7-8.1-17.7-42.5 0.4-41.8z"/><path class="p" d="m287.5 301.9c0 0 2.4 6.2 4.2 7.7 1.7 1.5 8.3 4.3 10.1 5.2 1.2 0.6 0.8 2.3 0.8 2.3l-17.3-0.4c0 0-2.9-4.6-3.7-4-0.8 0.7-1 2.2-1 2.2l-6.7-2c0 0 4.1-11.9 5.4-12.8 1.3-0.8 8.2 1.8 8.2 1.8z"/><path class="p" d="m208.6 292.4c0 0-2.6 6-2.4 8.3 0.2 2.3 3 8.9 3.6 10.8 0.5 1.3-0.9 2.2-0.9 2.2l-12.2-12.3c0 0 1.2-5.3 0.1-5.5-1-0.1-2.3 0.9-2.3 0.9l-3.3-6.1c0 0 12.4-6.8 13.9-6.6 1.6 0.3 3.5 8.3 3.5 8.3z"/><path class="o" d="m256.8 243.1c0 0 7.7 43.4 6.3 46.4-1.3 2.9-56.9 10.5-56.9 10.5l-3.4-20.5 39.4-5.6-6.4-33.3z"/><path class="k" d="m293.9 307.2l-20-1.8v-39.9c0 0-33.7-0.5-38.1-7-1.6-2.4-2.1-5.5-1.9-8.4 0.2-5 1.9-9.5 1.9-9.5l21 2.5c0 0 2 0.4 5 1.1 9.2 2.1 27.8 6.4 29.9 8.1 2.8 2.2 2.2 54.9 2.2 54.9z"/><path class="o" d="m261.8 244.2c-9.1 0.8-21.3 4-27.9 5.9 0.2-5 1.9-9.5 1.9-9.5l21 2.5c0 0 2 0.4 5 1.1z"/><path class="k" d="m318.4 231.2l-4.5 9.1-2.1 4.2c0 0-28.1-18-30.5-20.6-1-1.2-4.3-7.6-7.8-14.7-2.9-5.9-5.9-12.3-7.8-16.3-1.1-2.4-1.8-4-1.8-4l9.1-15.1c0 0 1.2 0.6 5.1 8.1 5.7 11.1 15 30.7 16.5 31.9 3.4 3 23.8 17.4 23.8 17.4z"/><path class="o" d="m313.9 240.3l-2.1 4.2c0 0-28.1-18-30.5-20.6-1-1.2-4.3-7.6-7.8-14.7-2.9-5.9-5.9-12.3-7.8-16.3l3.5-7.5c0 0 11.7 33 15.4 35.5 3.3 2.2 24.5 16.2 29.3 19.4z"/><path class="k" d="m403.4 341.9c-0.8 3-1.9 6-2.9 7.1-2.3 2.4-32.1 21.8-32.1 21.8l1.5 43.5h-18.7c0 0-4.1-35.1 0.2-47.4 2.8-7.9 17.2-21.1 25.7-28.4 3.7-3.2 6.3-5.3 6.3-5.3l21.9 1.3c0 0-0.8 3.7-1.9 7.4z"/><path class="o" d="m403.4 341.9c-8.4-4.1-26.3-3.4-26.3-3.4 3.7-3.2 6.3-5.3 6.3-5.3l21.9 1.3c0 0-0.8 3.7-1.9 7.4z"/><path class="l" d="m443.6 334.8l-11.5 2.4-2.7 0.6-6.2-32.5-16.5-19.5 0.7-3.2 3.7-15.4c0 0 23.9 24.1 25.7 33z"/><path class="m" d="m432.1 337.2l-2.7 0.6-6.2-32.5-16.5-19.5 0.7-3.2c2.2 2.5 18.6 21.3 18.7 22.7 0.1 1.2 4.3 22.8 6 31.9z"/><path class="l" d="m413.5 337.6l-25.8-3.7-1.1-0.1-15.6-2.2c0 0 3.5-33.8 6.6-52.2 1.7-9.9 6.1-14.3 9.8-16.2q0.6-0.3 1.2-0.5v-0.1q0.6-0.2 1.2-0.4c2-0.6 3.4-0.5 3.4-0.5l4.2 0.6 4.7 0.6q1.2 0.4 2.3 0.8 0.6 0.2 1.1 0.4 0.2 0.1 0.4 0.2c13.8 5.9 12.5 18 12.5 18z"/><path class="e" d="m405.9 256.9l-5.4 8.2-8.7-2.4 2.7-5.4z"/><path class="j" d="m396.2 237.3l-6.3 19.3 11.9 3.6 5.1-3.3 5.6-11.9z"/><path class="j" d="m404.2 252.8c0 0 5.2-6 7.1-1.5 1.4 3.1-4.4 5.6-4.4 5.6z"/><path class="j" d="m395.1 240.8c-0.1 0.2-5.4 8-5.4 8l4 1.9 2-7.6z"/><path class="m" d="m405.5 264.1l-5.6 6.6-2.6-6.7-4.3 6-4.4-7.3v-0.1l1.2-0.4c2-0.6 3.4-0.5 3.4-0.5l4.2 0.6 4.7 0.6q1.2 0.4 2.3 0.8 0.6 0.2 1.1 0.4z"/><path class="d" d="m393.2 261.7l4.2 0.6-4.1 6.4-3.5-6.5c2-0.6 3.4-0.5 3.4-0.5z"/><path class="d" d="m404.4 263.6l-4.2 5.9-2.8-7.2 4.7 0.6q1.2 0.4 2.3 0.7z"/><path class="q" d="m397.4 262.3l-2.1 3.3 0.7 1.7-7.7 34.7 3 5.4 3.9-5.1 2.3-35 1.3-1.3z"/><path class="r" d="m401.9 227.1c-1.4 0.6-2.3 1.4-2.8 2.2-0.3-1.6 0.1-3.2 0.1-3.2-6.3 1.9-5.1 8.8-5.1 8.8-0.6 3.5 15.3 10.5 15.3 10.5l-2.3 4.9c2.2-1.8 4.2 1 4.2 1l5-5.4c-1.7-2.6-4.4-5.2-6.7-7.4-3.4-3.1-6.1-7-7.7-11.4z"/><path class="e" d="m259.2 158.3l-3.4 11.9 10.1 0.9 0.8-3.5z"/><path class="j" d="m280.1 150.9l-8.6 19.3-11.6-5.6-1.7-6.1 4.1-13.1z"/><path class="j" d="m263.2 157.2c0 0 0.2-8.3-4.5-6.1-3.2 1.4-0.5 7.4-0.5 7.4z"/><path class="j" d="m278.6 154.4c-0.1 0.2-1.5 9.9-1.5 9.9l-4.3-1.3 3.7-7.3z"/><path class="s" d="m258.7 143.4v7.7c0 0 3.5-0.7 4 2.2l1.7-5.4c0 0 17.2 5.7 19.1 2.7 2.9-4.5 2.1-13.9-24.8-7.2z"/><path class="k" d="m279.1 192.5c-0.3 5.5-0.9 12.4-1.6 19.3-1.7 17.3-3.9 35.3-3.9 35.3l-16.3-1.4-1.2-0.1-27.1-2.4 5-35.7 0.5-3.7 2.5-18c0 0 0.2-0.9 0.6-2.2 1.7-5.7 6.1-9.9 11.7-11.8q0-0.1 0-0.1 2.1-0.8 4.7-1.2 0.8-0.2 1.7-0.3 1.1-0.1 2.4-0.2l9.4 0.9c0 0 1.4 0.2 3.4 1.3q1 0.6 2.1 1.6c0 0 2.1 3.4 5.1 8.1 0.9 2.8 1.3 6.3 1 10.6z"/><path class="t" d="m259.6 206.9l11.3-34.7c-1.9-1.1-3.4-1.3-3.4-1.3l-4.4-0.4-5-0.5q-1.3 0.1-2.4 0.2z"/><path class="n" d="m273.5 192.8l-3.3-4.7 5.6-0.7-2.8-13.6q-1.1-1-2.1-1.6l-11.3 34.7z"/><path class="n" d="m253.9 187.9l-4.3 3.1 10 15.9-3.9-36.7q-0.9 0.1-1.7 0.3l-5.2 14.5z"/><path class="u" d="m255.7 170.2l0.3 2.5 2.5 5.8 4.3-6.2 2.9 7.1 4.6-5.4 0.6-1.8c-1.9-1.1-3.4-1.3-3.4-1.3l-4.4-0.4-5-0.5q-1.3 0.1-2.4 0.2z"/><path class="v" d="m267.5 170.9l-4.4-0.4 2.6 7.4 5.2-5.7c-1.9-1.1-3.4-1.3-3.4-1.3z"/><path class="v" d="m255.7 170.2l2.9 7 4.5-6.7-5-0.5q-1.3 0.1-2.4 0.2z"/><path class="q" d="m263.1 170.5l1.3 3.8-1.1 1.6 0.5 18.2-4.2 12.8-1.4-13.2 3.6-18.1-1-1.7z"/><path class="n" d="m256.1 245.6l1.2 0.1 4.2-35-2.5-7.5-1.2 0.4 2.4 7.2z"/><path class="n" d="m255.7 213c0 0.7 0.6 1.1 1.2 1 0.6-0.1 1.1-0.6 1-1.2-0.1-0.7-0.7-1.1-1.3-1-0.6 0.1-1 0.6-0.9 1.2z"/><path class="n" d="m255 219.9c0.1 0.6 0.7 1 1.3 1 0.6-0.1 1-0.7 0.9-1.3 0-0.6-0.6-1-1.2-1-0.6 0.1-1.1 0.7-1 1.3z"/><path class="n" d="m254.5 227.3c0.1 0.6 0.6 1 1.2 0.9 0.7 0 1.1-0.6 1-1.2-0.1-0.6-0.6-1.1-1.2-1-0.7 0.1-1.1 0.7-1 1.3z"/><path class="o" d="m248.7 232.4l-13-1 0.4 2.6 5.9 2 6.1-1.5z"/><path class="o" d="m273.9 235.5l-9.4-0.8 0.3 1.9 4.2 1.5 4.5-1.1z"/><path class="w" d=""/><path class="j" d="m180 149.8c0 0-1.8 1.6-1.6 3.1 0.1 1.4 7.2 3.5 7.2 3.5l1-1.5c0 0-4.4-5.6-6.6-5.1z"/><path class="j" d="m181.2 146.8c0 0-1.9 1.6-1.7 3.1 0.2 1.4 7.2 3.5 7.2 3.5l1-1.5c0 0-4.3-5.7-6.5-5.1z"/><path class="j" d="m179.2 153.2c0 0-1.6 1.4-1.5 2.7 0.2 1.3 6.4 3.2 6.4 3.2l1-1.4c0 0-3.9-5-5.9-4.5z"/><path class="j" d="m178.8 156.8c0 0-1.2 1.4-0.8 2.5 0.3 1 5.8 1.7 5.8 1.7l0.5-1.2c0 0-3.9-3.7-5.5-3z"/><path class="g" d="m229.2 125.5l-0.7-2.6-0.8 2.6c-0.6 2.2-2.1 4-4 5.1 1.9 1.1 3.4 3 4 5.1l0.8 2.6 0.7-2.6c0.6-2.1 2.1-4 4.1-5.1-2-1.1-3.5-2.9-4.1-5.1z"/><path class="g" d="m221 116.2l-0.5-1.8-0.5 1.8c-0.5 1.6-1.5 2.9-2.9 3.6 1.4 0.8 2.4 2.1 2.9 3.7l0.5 1.8 0.5-1.8c0.5-1.6 1.5-2.9 2.9-3.7-1.4-0.7-2.4-2-2.9-3.6z"/><path class="g" d="m186.7 195.7l0.8 2.6 0.7-2.6c0.6-2.1 2.1-4 4.1-5.1-2-1.1-3.5-2.9-4.1-5.1l-0.7-2.6-0.8 2.6c-0.6 2.2-2.1 4-4 5.1 1.9 1.1 3.4 3 4 5.1z"/><path class="g" d="m194.9 205.1l0.5 1.8 0.6-1.8c0.4-1.6 1.4-2.9 2.8-3.7-1.4-0.7-2.4-2.1-2.8-3.6l-0.6-1.8-0.5 1.8c-0.4 1.5-1.5 2.9-2.9 3.6 1.4 0.8 2.5 2.1 2.9 3.7z"/></svg>